<?xml version="1.0" encoding="utf-8" standalone="no"?>
<!DOCTYPE svg PUBLIC "-//W3C//DTD SVG 1.1//EN"
  "http://www.w3.org/Graphics/SVG/1.1/DTD/svg11.dtd">
<!-- Created with matplotlib (https://matplotlib.org/) -->
<svg height="576pt" version="1.1" viewBox="0 0 864 576" width="864pt" xmlns="http://www.w3.org/2000/svg" xmlns:xlink="http://www.w3.org/1999/xlink">
 <defs>
  <style type="text/css">
*{stroke-linecap:butt;stroke-linejoin:round;}
  </style>
 </defs>
 <g id="figure_1">
  <g id="patch_1">
   <path d="M 0 576 
L 864 576 
L 864 0 
L 0 0 
z
" style="fill:#f0f0f0;"/>
  </g>
  <g id="axes_1">
   <g id="patch_2">
    <path d="M 69.12 504 
L 820.8 504 
L 820.8 69.12 
L 69.12 69.12 
z
" style="fill:#f0f0f0;"/>
   </g>
   <g id="matplotlib.axis_1">
    <g id="xtick_1">
     <g id="line2d_1">
      <path clip-path="url(#p430f3826c7)" d="M 69.12 504 
L 69.12 69.12 
" style="fill:none;stroke:#cbcbcb;"/>
     </g>
     <g id="line2d_2"/>
     <g id="text_1">
      <!-- 15 -->
      <defs>
       <path d="M 12.40625 8.296875 
L 28.515625 8.296875 
L 28.515625 63.921875 
L 10.984375 60.40625 
L 10.984375 69.390625 
L 28.421875 72.90625 
L 38.28125 72.90625 
L 38.28125 8.296875 
L 54.390625 8.296875 
L 54.390625 0 
L 12.40625 0 
z
" id="DejaVuSans-49"/>
       <path d="M 10.796875 72.90625 
L 49.515625 72.90625 
L 49.515625 64.59375 
L 19.828125 64.59375 
L 19.828125 46.734375 
Q 21.96875 47.46875 24.109375 47.828125 
Q 26.265625 48.1875 28.421875 48.1875 
Q 40.625 48.1875 47.75 41.5 
Q 54.890625 34.8125 54.890625 23.390625 
Q 54.890625 11.625 47.5625 5.09375 
Q 40.234375 -1.421875 26.90625 -1.421875 
Q 22.3125 -1.421875 17.546875 -0.640625 
Q 12.796875 0.140625 7.71875 1.703125 
L 7.71875 11.625 
Q 12.109375 9.234375 16.796875 8.0625 
Q 21.484375 6.890625 26.703125 6.890625 
Q 35.15625 6.890625 40.078125 11.328125 
Q 45.015625 15.765625 45.015625 23.390625 
Q 45.015625 31 40.078125 35.4375 
Q 35.15625 39.890625 26.703125 39.890625 
Q 22.75 39.890625 18.8125 39.015625 
Q 14.890625 38.140625 10.796875 36.28125 
z
" id="DejaVuSans-53"/>
      </defs>
      <g transform="translate(62.7575 515.098438)scale(0.1 -0.1)">
       <use xlink:href="#DejaVuSans-49"/>
       <use x="63.623047" xlink:href="#DejaVuSans-53"/>
      </g>
     </g>
    </g>
    <g id="xtick_2">
     <g id="line2d_3">
      <path clip-path="url(#p430f3826c7)" d="M 187.44 504 
L 187.44 69.12 
" style="fill:none;stroke:#cbcbcb;"/>
     </g>
     <g id="line2d_4"/>
     <g id="text_2">
      <!-- Apr -->
      <defs>
       <path d="M 34.1875 63.1875 
L 20.796875 26.90625 
L 47.609375 26.90625 
z
M 28.609375 72.90625 
L 39.796875 72.90625 
L 67.578125 0 
L 57.328125 0 
L 50.6875 18.703125 
L 17.828125 18.703125 
L 11.1875 0 
L 0.78125 0 
z
" id="DejaVuSans-65"/>
       <path d="M 18.109375 8.203125 
L 18.109375 -20.796875 
L 9.078125 -20.796875 
L 9.078125 54.6875 
L 18.109375 54.6875 
L 18.109375 46.390625 
Q 20.953125 51.265625 25.265625 53.625 
Q 29.59375 56 35.59375 56 
Q 45.5625 56 51.78125 48.09375 
Q 58.015625 40.1875 58.015625 27.296875 
Q 58.015625 14.40625 51.78125 6.484375 
Q 45.5625 -1.421875 35.59375 -1.421875 
Q 29.59375 -1.421875 25.265625 0.953125 
Q 20.953125 3.328125 18.109375 8.203125 
z
M 48.6875 27.296875 
Q 48.6875 37.203125 44.609375 42.84375 
Q 40.53125 48.484375 33.40625 48.484375 
Q 26.265625 48.484375 22.1875 42.84375 
Q 18.109375 37.203125 18.109375 27.296875 
Q 18.109375 17.390625 22.1875 11.75 
Q 26.265625 6.109375 33.40625 6.109375 
Q 40.53125 6.109375 44.609375 11.75 
Q 48.6875 17.390625 48.6875 27.296875 
z
" id="DejaVuSans-112"/>
       <path d="M 41.109375 46.296875 
Q 39.59375 47.171875 37.8125 47.578125 
Q 36.03125 48 33.890625 48 
Q 26.265625 48 22.1875 43.046875 
Q 18.109375 38.09375 18.109375 28.8125 
L 18.109375 0 
L 9.078125 0 
L 9.078125 54.6875 
L 18.109375 54.6875 
L 18.109375 46.1875 
Q 20.953125 51.171875 25.484375 53.578125 
Q 30.03125 56 36.53125 56 
Q 37.453125 56 38.578125 55.875 
Q 39.703125 55.765625 41.0625 55.515625 
z
" id="DejaVuSans-114"/>
      </defs>
      <g transform="translate(178.79 515.098438)scale(0.1 -0.1)">
       <use xlink:href="#DejaVuSans-65"/>
       <use x="68.408203" xlink:href="#DejaVuSans-112"/>
       <use x="131.884766" xlink:href="#DejaVuSans-114"/>
      </g>
     </g>
    </g>
    <g id="xtick_3">
     <g id="line2d_5">
      <path clip-path="url(#p430f3826c7)" d="M 284.88 504 
L 284.88 69.12 
" style="fill:none;stroke:#cbcbcb;"/>
     </g>
     <g id="line2d_6"/>
     <g id="text_3">
      <!-- 15 -->
      <g transform="translate(278.5175 515.098438)scale(0.1 -0.1)">
       <use xlink:href="#DejaVuSans-49"/>
       <use x="63.623047" xlink:href="#DejaVuSans-53"/>
      </g>
     </g>
    </g>
    <g id="xtick_4">
     <g id="line2d_7">
      <path clip-path="url(#p430f3826c7)" d="M 396.24 504 
L 396.24 69.12 
" style="fill:none;stroke:#cbcbcb;"/>
     </g>
     <g id="line2d_8"/>
     <g id="text_4">
      <!-- May -->
      <defs>
       <path d="M 9.8125 72.90625 
L 24.515625 72.90625 
L 43.109375 23.296875 
L 61.8125 72.90625 
L 76.515625 72.90625 
L 76.515625 0 
L 66.890625 0 
L 66.890625 64.015625 
L 48.09375 14.015625 
L 38.1875 14.015625 
L 19.390625 64.015625 
L 19.390625 0 
L 9.8125 0 
z
" id="DejaVuSans-77"/>
       <path d="M 34.28125 27.484375 
Q 23.390625 27.484375 19.1875 25 
Q 14.984375 22.515625 14.984375 16.5 
Q 14.984375 11.71875 18.140625 8.90625 
Q 21.296875 6.109375 26.703125 6.109375 
Q 34.1875 6.109375 38.703125 11.40625 
Q 43.21875 16.703125 43.21875 25.484375 
L 43.21875 27.484375 
z
M 52.203125 31.203125 
L 52.203125 0 
L 43.21875 0 
L 43.21875 8.296875 
Q 40.140625 3.328125 35.546875 0.953125 
Q 30.953125 -1.421875 24.3125 -1.421875 
Q 15.921875 -1.421875 10.953125 3.296875 
Q 6 8.015625 6 15.921875 
Q 6 25.140625 12.171875 29.828125 
Q 18.359375 34.515625 30.609375 34.515625 
L 43.21875 34.515625 
L 43.21875 35.40625 
Q 43.21875 41.609375 39.140625 45 
Q 35.0625 48.390625 27.6875 48.390625 
Q 23 48.390625 18.546875 47.265625 
Q 14.109375 46.140625 10.015625 43.890625 
L 10.015625 52.203125 
Q 14.9375 54.109375 19.578125 55.046875 
Q 24.21875 56 28.609375 56 
Q 40.484375 56 46.34375 49.84375 
Q 52.203125 43.703125 52.203125 31.203125 
z
" id="DejaVuSans-97"/>
       <path d="M 32.171875 -5.078125 
Q 28.375 -14.84375 24.75 -17.8125 
Q 21.140625 -20.796875 15.09375 -20.796875 
L 7.90625 -20.796875 
L 7.90625 -13.28125 
L 13.1875 -13.28125 
Q 16.890625 -13.28125 18.9375 -11.515625 
Q 21 -9.765625 23.484375 -3.21875 
L 25.09375 0.875 
L 2.984375 54.6875 
L 12.5 54.6875 
L 29.59375 11.921875 
L 46.6875 54.6875 
L 56.203125 54.6875 
z
" id="DejaVuSans-121"/>
      </defs>
      <g transform="translate(385.9025 515.098438)scale(0.1 -0.1)">
       <use xlink:href="#DejaVuSans-77"/>
       <use x="86.279297" xlink:href="#DejaVuSans-97"/>
       <use x="147.558594" xlink:href="#DejaVuSans-121"/>
      </g>
     </g>
    </g>
    <g id="xtick_5">
     <g id="line2d_9">
      <path clip-path="url(#p430f3826c7)" d="M 493.68 504 
L 493.68 69.12 
" style="fill:none;stroke:#cbcbcb;"/>
     </g>
     <g id="line2d_10"/>
     <g id="text_5">
      <!-- 15 -->
      <g transform="translate(487.3175 515.098438)scale(0.1 -0.1)">
       <use xlink:href="#DejaVuSans-49"/>
       <use x="63.623047" xlink:href="#DejaVuSans-53"/>
      </g>
     </g>
    </g>
    <g id="xtick_6">
     <g id="line2d_11">
      <path clip-path="url(#p430f3826c7)" d="M 612 504 
L 612 69.12 
" style="fill:none;stroke:#cbcbcb;"/>
     </g>
     <g id="line2d_12"/>
     <g id="text_6">
      <!-- Jun -->
      <defs>
       <path d="M 9.8125 72.90625 
L 19.671875 72.90625 
L 19.671875 5.078125 
Q 19.671875 -8.109375 14.671875 -14.0625 
Q 9.671875 -20.015625 -1.421875 -20.015625 
L -5.171875 -20.015625 
L -5.171875 -11.71875 
L -2.09375 -11.71875 
Q 4.4375 -11.71875 7.125 -8.046875 
Q 9.8125 -4.390625 9.8125 5.078125 
z
" id="DejaVuSans-74"/>
       <path d="M 8.5 21.578125 
L 8.5 54.6875 
L 17.484375 54.6875 
L 17.484375 21.921875 
Q 17.484375 14.15625 20.5 10.265625 
Q 23.53125 6.390625 29.59375 6.390625 
Q 36.859375 6.390625 41.078125 11.03125 
Q 45.3125 15.671875 45.3125 23.6875 
L 45.3125 54.6875 
L 54.296875 54.6875 
L 54.296875 0 
L 45.3125 0 
L 45.3125 8.40625 
Q 42.046875 3.421875 37.71875 1 
Q 33.40625 -1.421875 27.6875 -1.421875 
Q 18.265625 -1.421875 13.375 4.4375 
Q 8.5 10.296875 8.5 21.578125 
z
M 31.109375 56 
z
" id="DejaVuSans-117"/>
       <path d="M 54.890625 33.015625 
L 54.890625 0 
L 45.90625 0 
L 45.90625 32.71875 
Q 45.90625 40.484375 42.875 44.328125 
Q 39.84375 48.1875 33.796875 48.1875 
Q 26.515625 48.1875 22.3125 43.546875 
Q 18.109375 38.921875 18.109375 30.90625 
L 18.109375 0 
L 9.078125 0 
L 9.078125 54.6875 
L 18.109375 54.6875 
L 18.109375 46.1875 
Q 21.34375 51.125 25.703125 53.5625 
Q 30.078125 56 35.796875 56 
Q 45.21875 56 50.046875 50.171875 
Q 54.890625 44.34375 54.890625 33.015625 
z
" id="DejaVuSans-110"/>
      </defs>
      <g transform="translate(604.1875 515.098438)scale(0.1 -0.1)">
       <use xlink:href="#DejaVuSans-74"/>
       <use x="29.492188" xlink:href="#DejaVuSans-117"/>
       <use x="92.871094" xlink:href="#DejaVuSans-110"/>
      </g>
     </g>
    </g>
    <g id="xtick_7">
     <g id="line2d_13">
      <path clip-path="url(#p430f3826c7)" d="M 709.44 504 
L 709.44 69.12 
" style="fill:none;stroke:#cbcbcb;"/>
     </g>
     <g id="line2d_14"/>
     <g id="text_7">
      <!-- 15 -->
      <g transform="translate(703.0775 515.098438)scale(0.1 -0.1)">
       <use xlink:href="#DejaVuSans-49"/>
       <use x="63.623047" xlink:href="#DejaVuSans-53"/>
      </g>
     </g>
    </g>
    <g id="xtick_8">
     <g id="line2d_15">
      <path clip-path="url(#p430f3826c7)" d="M 820.8 504 
L 820.8 69.12 
" style="fill:none;stroke:#cbcbcb;"/>
     </g>
     <g id="line2d_16"/>
     <g id="text_8">
      <!-- Jul -->
      <defs>
       <path d="M 9.421875 75.984375 
L 18.40625 75.984375 
L 18.40625 0 
L 9.421875 0 
z
" id="DejaVuSans-108"/>
      </defs>
      <g transform="translate(814.767187 515.098438)scale(0.1 -0.1)">
       <use xlink:href="#DejaVuSans-74"/>
       <use x="29.492188" xlink:href="#DejaVuSans-117"/>
       <use x="92.871094" xlink:href="#DejaVuSans-108"/>
      </g>
     </g>
    </g>
    <g id="text_9">
     <!-- Date -->
     <defs>
      <path d="M 19.671875 64.796875 
L 19.671875 8.109375 
L 31.59375 8.109375 
Q 46.6875 8.109375 53.6875 14.9375 
Q 60.6875 21.78125 60.6875 36.53125 
Q 60.6875 51.171875 53.6875 57.984375 
Q 46.6875 64.796875 31.59375 64.796875 
z
M 9.8125 72.90625 
L 30.078125 72.90625 
Q 51.265625 72.90625 61.171875 64.09375 
Q 71.09375 55.28125 71.09375 36.53125 
Q 71.09375 17.671875 61.125 8.828125 
Q 51.171875 0 30.078125 0 
L 9.8125 0 
z
" id="DejaVuSans-68"/>
      <path d="M 18.3125 70.21875 
L 18.3125 54.6875 
L 36.8125 54.6875 
L 36.8125 47.703125 
L 18.3125 47.703125 
L 18.3125 18.015625 
Q 18.3125 11.328125 20.140625 9.421875 
Q 21.96875 7.515625 27.59375 7.515625 
L 36.8125 7.515625 
L 36.8125 0 
L 27.59375 0 
Q 17.1875 0 13.234375 3.875 
Q 9.28125 7.765625 9.28125 18.015625 
L 9.28125 47.703125 
L 2.6875 47.703125 
L 2.6875 54.6875 
L 9.28125 54.6875 
L 9.28125 70.21875 
z
" id="DejaVuSans-116"/>
      <path d="M 56.203125 29.59375 
L 56.203125 25.203125 
L 14.890625 25.203125 
Q 15.484375 15.921875 20.484375 11.0625 
Q 25.484375 6.203125 34.421875 6.203125 
Q 39.59375 6.203125 44.453125 7.46875 
Q 49.3125 8.734375 54.109375 11.28125 
L 54.109375 2.78125 
Q 49.265625 0.734375 44.1875 -0.34375 
Q 39.109375 -1.421875 33.890625 -1.421875 
Q 20.796875 -1.421875 13.15625 6.1875 
Q 5.515625 13.8125 5.515625 26.8125 
Q 5.515625 40.234375 12.765625 48.109375 
Q 20.015625 56 32.328125 56 
Q 43.359375 56 49.78125 48.890625 
Q 56.203125 41.796875 56.203125 29.59375 
z
M 47.21875 32.234375 
Q 47.125 39.59375 43.09375 43.984375 
Q 39.0625 48.390625 32.421875 48.390625 
Q 24.90625 48.390625 20.390625 44.140625 
Q 15.875 39.890625 15.1875 32.171875 
z
" id="DejaVuSans-101"/>
     </defs>
     <g transform="translate(430.619062 530.29625)scale(0.12 -0.12)">
      <use xlink:href="#DejaVuSans-68"/>
      <use x="77.001953" xlink:href="#DejaVuSans-97"/>
      <use x="138.28125" xlink:href="#DejaVuSans-116"/>
      <use x="177.490234" xlink:href="#DejaVuSans-101"/>
     </g>
    </g>
    <g id="text_10">
     <!-- 2018-Jul -->
     <defs>
      <path d="M 19.1875 8.296875 
L 53.609375 8.296875 
L 53.609375 0 
L 7.328125 0 
L 7.328125 8.296875 
Q 12.9375 14.109375 22.625 23.890625 
Q 32.328125 33.6875 34.8125 36.53125 
Q 39.546875 41.84375 41.421875 45.53125 
Q 43.3125 49.21875 43.3125 52.78125 
Q 43.3125 58.59375 39.234375 62.25 
Q 35.15625 65.921875 28.609375 65.921875 
Q 23.96875 65.921875 18.8125 64.3125 
Q 13.671875 62.703125 7.8125 59.421875 
L 7.8125 69.390625 
Q 13.765625 71.78125 18.9375 73 
Q 24.125 74.21875 28.421875 74.21875 
Q 39.75 74.21875 46.484375 68.546875 
Q 53.21875 62.890625 53.21875 53.421875 
Q 53.21875 48.921875 51.53125 44.890625 
Q 49.859375 40.875 45.40625 35.40625 
Q 44.1875 33.984375 37.640625 27.21875 
Q 31.109375 20.453125 19.1875 8.296875 
z
" id="DejaVuSans-50"/>
      <path d="M 31.78125 66.40625 
Q 24.171875 66.40625 20.328125 58.90625 
Q 16.5 51.421875 16.5 36.375 
Q 16.5 21.390625 20.328125 13.890625 
Q 24.171875 6.390625 31.78125 6.390625 
Q 39.453125 6.390625 43.28125 13.890625 
Q 47.125 21.390625 47.125 36.375 
Q 47.125 51.421875 43.28125 58.90625 
Q 39.453125 66.40625 31.78125 66.40625 
z
M 31.78125 74.21875 
Q 44.046875 74.21875 50.515625 64.515625 
Q 56.984375 54.828125 56.984375 36.375 
Q 56.984375 17.96875 50.515625 8.265625 
Q 44.046875 -1.421875 31.78125 -1.421875 
Q 19.53125 -1.421875 13.0625 8.265625 
Q 6.59375 17.96875 6.59375 36.375 
Q 6.59375 54.828125 13.0625 64.515625 
Q 19.53125 74.21875 31.78125 74.21875 
z
" id="DejaVuSans-48"/>
      <path d="M 31.78125 34.625 
Q 24.75 34.625 20.71875 30.859375 
Q 16.703125 27.09375 16.703125 20.515625 
Q 16.703125 13.921875 20.71875 10.15625 
Q 24.75 6.390625 31.78125 6.390625 
Q 38.8125 6.390625 42.859375 10.171875 
Q 46.921875 13.96875 46.921875 20.515625 
Q 46.921875 27.09375 42.890625 30.859375 
Q 38.875 34.625 31.78125 34.625 
z
M 21.921875 38.8125 
Q 15.578125 40.375 12.03125 44.71875 
Q 8.5 49.078125 8.5 55.328125 
Q 8.5 64.0625 14.71875 69.140625 
Q 20.953125 74.21875 31.78125 74.21875 
Q 42.671875 74.21875 48.875 69.140625 
Q 55.078125 64.0625 55.078125 55.328125 
Q 55.078125 49.078125 51.53125 44.71875 
Q 48 40.375 41.703125 38.8125 
Q 48.828125 37.15625 52.796875 32.3125 
Q 56.78125 27.484375 56.78125 20.515625 
Q 56.78125 9.90625 50.3125 4.234375 
Q 43.84375 -1.421875 31.78125 -1.421875 
Q 19.734375 -1.421875 13.25 4.234375 
Q 6.78125 9.90625 6.78125 20.515625 
Q 6.78125 27.484375 10.78125 32.3125 
Q 14.796875 37.15625 21.921875 38.8125 
z
M 18.3125 54.390625 
Q 18.3125 48.734375 21.84375 45.5625 
Q 25.390625 42.390625 31.78125 42.390625 
Q 38.140625 42.390625 41.71875 45.5625 
Q 45.3125 48.734375 45.3125 54.390625 
Q 45.3125 60.0625 41.71875 63.234375 
Q 38.140625 66.40625 31.78125 66.40625 
Q 25.390625 66.40625 21.84375 63.234375 
Q 18.3125 60.0625 18.3125 54.390625 
z
" id="DejaVuSans-56"/>
      <path d="M 4.890625 31.390625 
L 31.203125 31.390625 
L 31.203125 23.390625 
L 4.890625 23.390625 
z
" id="DejaVuSans-45"/>
     </defs>
     <g transform="translate(779.114062 527.776562)scale(0.1 -0.1)">
      <use xlink:href="#DejaVuSans-50"/>
      <use x="63.623047" xlink:href="#DejaVuSans-48"/>
      <use x="127.246094" xlink:href="#DejaVuSans-49"/>
      <use x="190.869141" xlink:href="#DejaVuSans-56"/>
      <use x="254.492188" xlink:href="#DejaVuSans-45"/>
      <use x="296.201172" xlink:href="#DejaVuSans-74"/>
      <use x="325.693359" xlink:href="#DejaVuSans-117"/>
      <use x="389.072266" xlink:href="#DejaVuSans-108"/>
     </g>
    </g>
   </g>
   <g id="matplotlib.axis_2">
    <g id="ytick_1">
     <g id="line2d_17">
      <path clip-path="url(#p430f3826c7)" d="M 69.12 504 
L 820.8 504 
" style="fill:none;stroke:#cbcbcb;"/>
     </g>
     <g id="line2d_18"/>
     <g id="text_11">
      <!-- 0.0 -->
      <defs>
       <path d="M 10.6875 12.40625 
L 21 12.40625 
L 21 0 
L 10.6875 0 
z
" id="DejaVuSans-46"/>
      </defs>
      <g transform="translate(49.716875 507.799219)scale(0.1 -0.1)">
       <use xlink:href="#DejaVuSans-48"/>
       <use x="63.623047" xlink:href="#DejaVuSans-46"/>
       <use x="95.410156" xlink:href="#DejaVuSans-48"/>
      </g>
     </g>
    </g>
    <g id="ytick_2">
     <g id="line2d_19">
      <path clip-path="url(#p430f3826c7)" d="M 69.12 417.024 
L 820.8 417.024 
" style="fill:none;stroke:#cbcbcb;"/>
     </g>
     <g id="line2d_20"/>
     <g id="text_12">
      <!-- 0.2 -->
      <g transform="translate(49.716875 420.823219)scale(0.1 -0.1)">
       <use xlink:href="#DejaVuSans-48"/>
       <use x="63.623047" xlink:href="#DejaVuSans-46"/>
       <use x="95.410156" xlink:href="#DejaVuSans-50"/>
      </g>
     </g>
    </g>
    <g id="ytick_3">
     <g id="line2d_21">
      <path clip-path="url(#p430f3826c7)" d="M 69.12 330.048 
L 820.8 330.048 
" style="fill:none;stroke:#cbcbcb;"/>
     </g>
     <g id="line2d_22"/>
     <g id="text_13">
      <!-- 0.4 -->
      <defs>
       <path d="M 37.796875 64.3125 
L 12.890625 25.390625 
L 37.796875 25.390625 
z
M 35.203125 72.90625 
L 47.609375 72.90625 
L 47.609375 25.390625 
L 58.015625 25.390625 
L 58.015625 17.1875 
L 47.609375 17.1875 
L 47.609375 0 
L 37.796875 0 
L 37.796875 17.1875 
L 4.890625 17.1875 
L 4.890625 26.703125 
z
" id="DejaVuSans-52"/>
      </defs>
      <g transform="translate(49.716875 333.847219)scale(0.1 -0.1)">
       <use xlink:href="#DejaVuSans-48"/>
       <use x="63.623047" xlink:href="#DejaVuSans-46"/>
       <use x="95.410156" xlink:href="#DejaVuSans-52"/>
      </g>
     </g>
    </g>
    <g id="ytick_4">
     <g id="line2d_23">
      <path clip-path="url(#p430f3826c7)" d="M 69.12 243.072 
L 820.8 243.072 
" style="fill:none;stroke:#cbcbcb;"/>
     </g>
     <g id="line2d_24"/>
     <g id="text_14">
      <!-- 0.6 -->
      <defs>
       <path d="M 33.015625 40.375 
Q 26.375 40.375 22.484375 35.828125 
Q 18.609375 31.296875 18.609375 23.390625 
Q 18.609375 15.53125 22.484375 10.953125 
Q 26.375 6.390625 33.015625 6.390625 
Q 39.65625 6.390625 43.53125 10.953125 
Q 47.40625 15.53125 47.40625 23.390625 
Q 47.40625 31.296875 43.53125 35.828125 
Q 39.65625 40.375 33.015625 40.375 
z
M 52.59375 71.296875 
L 52.59375 62.3125 
Q 48.875 64.0625 45.09375 64.984375 
Q 41.3125 65.921875 37.59375 65.921875 
Q 27.828125 65.921875 22.671875 59.328125 
Q 17.53125 52.734375 16.796875 39.40625 
Q 19.671875 43.65625 24.015625 45.921875 
Q 28.375 48.1875 33.59375 48.1875 
Q 44.578125 48.1875 50.953125 41.515625 
Q 57.328125 34.859375 57.328125 23.390625 
Q 57.328125 12.15625 50.6875 5.359375 
Q 44.046875 -1.421875 33.015625 -1.421875 
Q 20.359375 -1.421875 13.671875 8.265625 
Q 6.984375 17.96875 6.984375 36.375 
Q 6.984375 53.65625 15.1875 63.9375 
Q 23.390625 74.21875 37.203125 74.21875 
Q 40.921875 74.21875 44.703125 73.484375 
Q 48.484375 72.75 52.59375 71.296875 
z
" id="DejaVuSans-54"/>
      </defs>
      <g transform="translate(49.716875 246.871219)scale(0.1 -0.1)">
       <use xlink:href="#DejaVuSans-48"/>
       <use x="63.623047" xlink:href="#DejaVuSans-46"/>
       <use x="95.410156" xlink:href="#DejaVuSans-54"/>
      </g>
     </g>
    </g>
    <g id="ytick_5">
     <g id="line2d_25">
      <path clip-path="url(#p430f3826c7)" d="M 69.12 156.096 
L 820.8 156.096 
" style="fill:none;stroke:#cbcbcb;"/>
     </g>
     <g id="line2d_26"/>
     <g id="text_15">
      <!-- 0.8 -->
      <g transform="translate(49.716875 159.895219)scale(0.1 -0.1)">
       <use xlink:href="#DejaVuSans-48"/>
       <use x="63.623047" xlink:href="#DejaVuSans-46"/>
       <use x="95.410156" xlink:href="#DejaVuSans-56"/>
      </g>
     </g>
    </g>
    <g id="ytick_6">
     <g id="line2d_27">
      <path clip-path="url(#p430f3826c7)" d="M 69.12 69.12 
L 820.8 69.12 
" style="fill:none;stroke:#cbcbcb;"/>
     </g>
     <g id="line2d_28"/>
     <g id="text_16">
      <!-- 1.0 -->
      <g transform="translate(49.716875 72.919219)scale(0.1 -0.1)">
       <use xlink:href="#DejaVuSans-49"/>
       <use x="63.623047" xlink:href="#DejaVuSans-46"/>
       <use x="95.410156" xlink:href="#DejaVuSans-48"/>
      </g>
     </g>
    </g>
    <g id="text_17">
     <!-- Percentage -->
     <defs>
      <path d="M 19.671875 64.796875 
L 19.671875 37.40625 
L 32.078125 37.40625 
Q 38.96875 37.40625 42.71875 40.96875 
Q 46.484375 44.53125 46.484375 51.125 
Q 46.484375 57.671875 42.71875 61.234375 
Q 38.96875 64.796875 32.078125 64.796875 
z
M 9.8125 72.90625 
L 32.078125 72.90625 
Q 44.34375 72.90625 50.609375 67.359375 
Q 56.890625 61.8125 56.890625 51.125 
Q 56.890625 40.328125 50.609375 34.8125 
Q 44.34375 29.296875 32.078125 29.296875 
L 19.671875 29.296875 
L 19.671875 0 
L 9.8125 0 
z
" id="DejaVuSans-80"/>
      <path d="M 48.78125 52.59375 
L 48.78125 44.1875 
Q 44.96875 46.296875 41.140625 47.34375 
Q 37.3125 48.390625 33.40625 48.390625 
Q 24.65625 48.390625 19.8125 42.84375 
Q 14.984375 37.3125 14.984375 27.296875 
Q 14.984375 17.28125 19.8125 11.734375 
Q 24.65625 6.203125 33.40625 6.203125 
Q 37.3125 6.203125 41.140625 7.25 
Q 44.96875 8.296875 48.78125 10.40625 
L 48.78125 2.09375 
Q 45.015625 0.34375 40.984375 -0.53125 
Q 36.96875 -1.421875 32.421875 -1.421875 
Q 20.0625 -1.421875 12.78125 6.34375 
Q 5.515625 14.109375 5.515625 27.296875 
Q 5.515625 40.671875 12.859375 48.328125 
Q 20.21875 56 33.015625 56 
Q 37.15625 56 41.109375 55.140625 
Q 45.0625 54.296875 48.78125 52.59375 
z
" id="DejaVuSans-99"/>
      <path d="M 45.40625 27.984375 
Q 45.40625 37.75 41.375 43.109375 
Q 37.359375 48.484375 30.078125 48.484375 
Q 22.859375 48.484375 18.828125 43.109375 
Q 14.796875 37.75 14.796875 27.984375 
Q 14.796875 18.265625 18.828125 12.890625 
Q 22.859375 7.515625 30.078125 7.515625 
Q 37.359375 7.515625 41.375 12.890625 
Q 45.40625 18.265625 45.40625 27.984375 
z
M 54.390625 6.78125 
Q 54.390625 -7.171875 48.1875 -13.984375 
Q 42 -20.796875 29.203125 -20.796875 
Q 24.46875 -20.796875 20.265625 -20.09375 
Q 16.0625 -19.390625 12.109375 -17.921875 
L 12.109375 -9.1875 
Q 16.0625 -11.328125 19.921875 -12.34375 
Q 23.78125 -13.375 27.78125 -13.375 
Q 36.625 -13.375 41.015625 -8.765625 
Q 45.40625 -4.15625 45.40625 5.171875 
L 45.40625 9.625 
Q 42.625 4.78125 38.28125 2.390625 
Q 33.9375 0 27.875 0 
Q 17.828125 0 11.671875 7.65625 
Q 5.515625 15.328125 5.515625 27.984375 
Q 5.515625 40.671875 11.671875 48.328125 
Q 17.828125 56 27.875 56 
Q 33.9375 56 38.28125 53.609375 
Q 42.625 51.21875 45.40625 46.390625 
L 45.40625 54.6875 
L 54.390625 54.6875 
z
" id="DejaVuSans-103"/>
     </defs>
     <g transform="translate(43.22125 320.307187)rotate(-90)scale(0.12 -0.12)">
      <use xlink:href="#DejaVuSans-80"/>
      <use x="56.677734" xlink:href="#DejaVuSans-101"/>
      <use x="118.201172" xlink:href="#DejaVuSans-114"/>
      <use x="157.064453" xlink:href="#DejaVuSans-99"/>
      <use x="212.044922" xlink:href="#DejaVuSans-101"/>
      <use x="273.568359" xlink:href="#DejaVuSans-110"/>
      <use x="336.947266" xlink:href="#DejaVuSans-116"/>
      <use x="376.15625" xlink:href="#DejaVuSans-97"/>
      <use x="437.435547" xlink:href="#DejaVuSans-103"/>
      <use x="500.912109" xlink:href="#DejaVuSans-101"/>
     </g>
    </g>
   </g>
   <g id="PolyCollection_1">
    <path clip-path="url(#p430f3826c7)" d="M 69.12 416.457176 
L 69.12 504 
L 76.08 504 
L 83.04 504 
L 90 504 
L 96.96 504 
L 103.92 504 
L 110.88 504 
L 117.84 504 
L 124.8 504 
L 131.76 504 
L 138.72 504 
L 145.68 504 
L 152.64 504 
L 159.6 504 
L 166.56 504 
L 173.52 504 
L 180.48 504 
L 187.44 504 
L 194.4 504 
L 201.36 504 
L 208.32 504 
L 215.28 504 
L 222.24 504 
L 229.2 504 
L 236.16 504 
L 243.12 504 
L 250.08 504 
L 257.04 504 
L 264 504 
L 270.96 504 
L 277.92 504 
L 284.88 504 
L 291.84 504 
L 298.8 504 
L 305.76 504 
L 312.72 504 
L 319.68 504 
L 326.64 504 
L 333.6 504 
L 340.56 504 
L 347.52 504 
L 354.48 504 
L 361.44 504 
L 368.4 504 
L 375.36 504 
L 382.32 504 
L 389.28 504 
L 396.24 504 
L 403.2 504 
L 410.16 504 
L 417.12 504 
L 424.08 504 
L 431.04 504 
L 438 504 
L 444.96 504 
L 451.92 504 
L 458.88 504 
L 465.84 504 
L 472.8 504 
L 479.76 504 
L 486.72 504 
L 493.68 504 
L 500.64 504 
L 507.6 504 
L 514.56 504 
L 521.52 504 
L 528.48 504 
L 535.44 504 
L 542.4 504 
L 549.36 504 
L 556.32 504 
L 563.28 504 
L 570.24 504 
L 577.2 504 
L 584.16 504 
L 591.12 504 
L 598.08 504 
L 605.04 504 
L 612 504 
L 618.96 504 
L 625.92 504 
L 632.88 504 
L 639.84 504 
L 646.8 504 
L 653.76 504 
L 660.72 504 
L 667.68 504 
L 674.64 504 
L 681.6 504 
L 688.56 504 
L 695.52 504 
L 702.48 504 
L 709.44 504 
L 716.4 504 
L 723.36 504 
L 730.32 504 
L 737.28 504 
L 744.24 504 
L 751.2 504 
L 758.16 504 
L 765.12 504 
L 772.08 504 
L 779.04 504 
L 786 504 
L 792.96 504 
L 799.92 504 
L 806.88 504 
L 813.84 504 
L 820.8 504 
L 820.8 405.326733 
L 820.8 405.326733 
L 813.84 401.659494 
L 806.88 391.806727 
L 799.92 386.962088 
L 792.96 406.870618 
L 786 391.013372 
L 779.04 402.18079 
L 772.08 396.703782 
L 765.12 410.354061 
L 758.16 407.836059 
L 751.2 404.40916 
L 744.24 405.85059 
L 737.28 411.432146 
L 730.32 396.929545 
L 723.36 397.111424 
L 716.4 388.690909 
L 709.44 384.61637 
L 702.48 393.193689 
L 695.52 395.093942 
L 688.56 399.523606 
L 681.6 386.651429 
L 674.64 393.892707 
L 667.68 395.597895 
L 660.72 389.516998 
L 653.76 409.385002 
L 646.8 397.364244 
L 639.84 390.818018 
L 632.88 394.4841 
L 625.92 400.513786 
L 618.96 408.786054 
L 612 386.716438 
L 605.04 389.890198 
L 598.08 375.383157 
L 591.12 394.832593 
L 584.16 399.028966 
L 577.2 393.618498 
L 570.24 411.277838 
L 563.28 393.451456 
L 556.32 402.929808 
L 549.36 387.10971 
L 542.4 380.219784 
L 535.44 395.476033 
L 528.48 385.835462 
L 521.52 383.725217 
L 514.56 396.773211 
L 507.6 390.357638 
L 500.64 386.21479 
L 493.68 391.424681 
L 486.72 384.441659 
L 479.76 399.415362 
L 472.8 391.871631 
L 465.84 401.083559 
L 458.88 404.665899 
L 451.92 401.214498 
L 444.96 395.186033 
L 438 402.020773 
L 431.04 402.558647 
L 424.08 400.165473 
L 417.12 399.39234 
L 410.16 378.07818 
L 403.2 391.88024 
L 396.24 395.771946 
L 389.28 390.111972 
L 382.32 386.77676 
L 375.36 395.670611 
L 368.4 393.134592 
L 361.44 384.875156 
L 354.48 396.90122 
L 347.52 383.247578 
L 340.56 387.24041 
L 333.6 388.5087 
L 326.64 376.294567 
L 319.68 372.54559 
L 312.72 363.626484 
L 305.76 357.841276 
L 298.8 361.965798 
L 291.84 353.367245 
L 284.88 359.886333 
L 277.92 382.395455 
L 270.96 404.961135 
L 264 408.588201 
L 257.04 397.020448 
L 250.08 397.361729 
L 243.12 392.726625 
L 236.16 407.435031 
L 229.2 412.110462 
L 222.24 398.556493 
L 215.28 398.12538 
L 208.32 410.208064 
L 201.36 408.256475 
L 194.4 403.9776 
L 187.44 415.606724 
L 180.48 398.325148 
L 173.52 398.547541 
L 166.56 404.467606 
L 159.6 405.727223 
L 152.64 384.982731 
L 145.68 412.91027 
L 138.72 397.553772 
L 131.76 402.907861 
L 124.8 413.013579 
L 117.84 399.860222 
L 110.88 396.807957 
L 103.92 407.412351 
L 96.96 405.228703 
L 90 388.3944 
L 83.04 414.911595 
L 76.08 401.18696 
L 69.12 416.457176 
z
" style="fill:#ff0000;"/>
   </g>
   <g id="PolyCollection_2">
    <path clip-path="url(#p430f3826c7)" d="M 69.12 247.669573 
L 69.12 416.457176 
L 76.08 401.18696 
L 83.04 414.911595 
L 90 388.3944 
L 96.96 405.228703 
L 103.92 407.412351 
L 110.88 396.807957 
L 117.84 399.860222 
L 124.8 413.013579 
L 131.76 402.907861 
L 138.72 397.553772 
L 145.68 412.91027 
L 152.64 384.982731 
L 159.6 405.727223 
L 166.56 404.467606 
L 173.52 398.547541 
L 180.48 398.325148 
L 187.44 415.606724 
L 194.4 403.9776 
L 201.36 408.256475 
L 208.32 410.208064 
L 215.28 398.12538 
L 222.24 398.556493 
L 229.2 412.110462 
L 236.16 407.435031 
L 243.12 392.726625 
L 250.08 397.361729 
L 257.04 397.020448 
L 264 408.588201 
L 270.96 404.961135 
L 277.92 382.395455 
L 284.88 359.886333 
L 291.84 353.367245 
L 298.8 361.965798 
L 305.76 357.841276 
L 312.72 363.626484 
L 319.68 372.54559 
L 326.64 376.294567 
L 333.6 388.5087 
L 340.56 387.24041 
L 347.52 383.247578 
L 354.48 396.90122 
L 361.44 384.875156 
L 368.4 393.134592 
L 375.36 395.670611 
L 382.32 386.77676 
L 389.28 390.111972 
L 396.24 395.771946 
L 403.2 391.88024 
L 410.16 378.07818 
L 417.12 399.39234 
L 424.08 400.165473 
L 431.04 402.558647 
L 438 402.020773 
L 444.96 395.186033 
L 451.92 401.214498 
L 458.88 404.665899 
L 465.84 401.083559 
L 472.8 391.871631 
L 479.76 399.415362 
L 486.72 384.441659 
L 493.68 391.424681 
L 500.64 386.21479 
L 507.6 390.357638 
L 514.56 396.773211 
L 521.52 383.725217 
L 528.48 385.835462 
L 535.44 395.476033 
L 542.4 380.219784 
L 549.36 387.10971 
L 556.32 402.929808 
L 563.28 393.451456 
L 570.24 411.277838 
L 577.2 393.618498 
L 584.16 399.028966 
L 591.12 394.832593 
L 598.08 375.383157 
L 605.04 389.890198 
L 612 386.716438 
L 618.96 408.786054 
L 625.92 400.513786 
L 632.88 394.4841 
L 639.84 390.818018 
L 646.8 397.364244 
L 653.76 409.385002 
L 660.72 389.516998 
L 667.68 395.597895 
L 674.64 393.892707 
L 681.6 386.651429 
L 688.56 399.523606 
L 695.52 395.093942 
L 702.48 393.193689 
L 709.44 384.61637 
L 716.4 388.690909 
L 723.36 397.111424 
L 730.32 396.929545 
L 737.28 411.432146 
L 744.24 405.85059 
L 751.2 404.40916 
L 758.16 407.836059 
L 765.12 410.354061 
L 772.08 396.703782 
L 779.04 402.18079 
L 786 391.013372 
L 792.96 406.870618 
L 799.92 386.962088 
L 806.88 391.806727 
L 813.84 401.659494 
L 820.8 405.326733 
L 820.8 237.402772 
L 820.8 237.402772 
L 813.84 242.642224 
L 806.88 233.740036 
L 799.92 234.695374 
L 792.96 235.561279 
L 786 241.523372 
L 779.04 247.759329 
L 772.08 243.390927 
L 765.12 246.273571 
L 758.16 238.835074 
L 751.2 246.170382 
L 744.24 248.268145 
L 737.28 255.76702 
L 730.32 236.773738 
L 723.36 242.272833 
L 716.4 234.146777 
L 709.44 243.905479 
L 702.48 230.925032 
L 695.52 235.331979 
L 688.56 230.496581 
L 681.6 251.662222 
L 674.64 240.560269 
L 667.68 235.378947 
L 660.72 230.225039 
L 653.76 250.594668 
L 646.8 238.961676 
L 639.84 243.028468 
L 632.88 234.242811 
L 625.92 242.310722 
L 618.96 237.162169 
L 612 235.737123 
L 605.04 233.739943 
L 598.08 239.848977 
L 591.12 231.578601 
L 584.16 254.579029 
L 577.2 245.961568 
L 570.24 235.954595 
L 563.28 238.390927 
L 556.32 242.283838 
L 549.36 228.114855 
L 542.4 231.961293 
L 535.44 246.804472 
L 528.48 248.005585 
L 521.52 231.412174 
L 514.56 238.066187 
L 507.6 242.472756 
L 500.64 233.669189 
L 493.68 231.506043 
L 486.72 232.570254 
L 479.76 235.334871 
L 472.8 241.625182 
L 465.84 252.512456 
L 458.88 239.891223 
L 451.92 237.659738 
L 444.96 235.065998 
L 438 246.38232 
L 431.04 238.291078 
L 424.08 257.538833 
L 417.12 227.188085 
L 410.16 239.226887 
L 403.2 238.963353 
L 396.24 240.907439 
L 389.28 223.395211 
L 382.32 236.755307 
L 375.36 240.467928 
L 368.4 231.011328 
L 361.44 236.234531 
L 354.48 243.622232 
L 347.52 229.95195 
L 340.56 231.72587 
L 333.6 235.098117 
L 326.64 238.366209 
L 319.68 233.688116 
L 312.72 233.48783 
L 305.76 228.68731 
L 298.8 228.56391 
L 291.84 232.62194 
L 284.88 239.740831 
L 277.92 232.892145 
L 270.96 248.692199 
L 264 252.089579 
L 257.04 246.413661 
L 250.08 249.35748 
L 243.12 232.804747 
L 236.16 250.770186 
L 229.2 244.284431 
L 222.24 235.327562 
L 215.28 234.284407 
L 208.32 240.974789 
L 201.36 231.561262 
L 194.4 247.4208 
L 187.44 241.057976 
L 180.48 237.673036 
L 173.52 239.62623 
L 166.56 245.522028 
L 159.6 241.556579 
L 152.64 229.086872 
L 145.68 250.711784 
L 138.72 243.947823 
L 131.76 225.353305 
L 124.8 240.064184 
L 117.84 231.115211 
L 110.88 234.844541 
L 103.92 241.328711 
L 96.96 233.452535 
L 90 226.0392 
L 83.04 244.541499 
L 76.08 231.321938 
L 69.12 247.669573 
z
" style="fill:#008000;"/>
   </g>
   <g id="PolyCollection_3">
    <path clip-path="url(#p430f3826c7)" d="M 69.12 69.12 
L 69.12 247.669573 
L 76.08 231.321938 
L 83.04 244.541499 
L 90 226.0392 
L 96.96 233.452535 
L 103.92 241.328711 
L 110.88 234.844541 
L 117.84 231.115211 
L 124.8 240.064184 
L 131.76 225.353305 
L 138.72 243.947823 
L 145.68 250.711784 
L 152.64 229.086872 
L 159.6 241.556579 
L 166.56 245.522028 
L 173.52 239.62623 
L 180.48 237.673036 
L 187.44 241.057976 
L 194.4 247.4208 
L 201.36 231.561262 
L 208.32 240.974789 
L 215.28 234.284407 
L 222.24 235.327562 
L 229.2 244.284431 
L 236.16 250.770186 
L 243.12 232.804747 
L 250.08 249.35748 
L 257.04 246.413661 
L 264 252.089579 
L 270.96 248.692199 
L 277.92 232.892145 
L 284.88 239.740831 
L 291.84 232.62194 
L 298.8 228.56391 
L 305.76 228.68731 
L 312.72 233.48783 
L 319.68 233.688116 
L 326.64 238.366209 
L 333.6 235.098117 
L 340.56 231.72587 
L 347.52 229.95195 
L 354.48 243.622232 
L 361.44 236.234531 
L 368.4 231.011328 
L 375.36 240.467928 
L 382.32 236.755307 
L 389.28 223.395211 
L 396.24 240.907439 
L 403.2 238.963353 
L 410.16 239.226887 
L 417.12 227.188085 
L 424.08 257.538833 
L 431.04 238.291078 
L 438 246.38232 
L 444.96 235.065998 
L 451.92 237.659738 
L 458.88 239.891223 
L 465.84 252.512456 
L 472.8 241.625182 
L 479.76 235.334871 
L 486.72 232.570254 
L 493.68 231.506043 
L 500.64 233.669189 
L 507.6 242.472756 
L 514.56 238.066187 
L 521.52 231.412174 
L 528.48 248.005585 
L 535.44 246.804472 
L 542.4 231.961293 
L 549.36 228.114855 
L 556.32 242.283838 
L 563.28 238.390927 
L 570.24 235.954595 
L 577.2 245.961568 
L 584.16 254.579029 
L 591.12 231.578601 
L 598.08 239.848977 
L 605.04 233.739943 
L 612 235.737123 
L 618.96 237.162169 
L 625.92 242.310722 
L 632.88 234.242811 
L 639.84 243.028468 
L 646.8 238.961676 
L 653.76 250.594668 
L 660.72 230.225039 
L 667.68 235.378947 
L 674.64 240.560269 
L 681.6 251.662222 
L 688.56 230.496581 
L 695.52 235.331979 
L 702.48 230.925032 
L 709.44 243.905479 
L 716.4 234.146777 
L 723.36 242.272833 
L 730.32 236.773738 
L 737.28 255.76702 
L 744.24 248.268145 
L 751.2 246.170382 
L 758.16 238.835074 
L 765.12 246.273571 
L 772.08 243.390927 
L 779.04 247.759329 
L 786 241.523372 
L 792.96 235.561279 
L 799.92 234.695374 
L 806.88 233.740036 
L 813.84 242.642224 
L 820.8 237.402772 
L 820.8 69.12 
L 820.8 69.12 
L 813.84 69.12 
L 806.88 69.12 
L 799.92 69.12 
L 792.96 69.12 
L 786 69.12 
L 779.04 69.12 
L 772.08 69.12 
L 765.12 69.12 
L 758.16 69.12 
L 751.2 69.12 
L 744.24 69.12 
L 737.28 69.12 
L 730.32 69.12 
L 723.36 69.12 
L 716.4 69.12 
L 709.44 69.12 
L 702.48 69.12 
L 695.52 69.12 
L 688.56 69.12 
L 681.6 69.12 
L 674.64 69.12 
L 667.68 69.12 
L 660.72 69.12 
L 653.76 69.12 
L 646.8 69.12 
L 639.84 69.12 
L 632.88 69.12 
L 625.92 69.12 
L 618.96 69.12 
L 612 69.12 
L 605.04 69.12 
L 598.08 69.12 
L 591.12 69.12 
L 584.16 69.12 
L 577.2 69.12 
L 570.24 69.12 
L 563.28 69.12 
L 556.32 69.12 
L 549.36 69.12 
L 542.4 69.12 
L 535.44 69.12 
L 528.48 69.12 
L 521.52 69.12 
L 514.56 69.12 
L 507.6 69.12 
L 500.64 69.12 
L 493.68 69.12 
L 486.72 69.12 
L 479.76 69.12 
L 472.8 69.12 
L 465.84 69.12 
L 458.88 69.12 
L 451.92 69.12 
L 444.96 69.12 
L 438 69.12 
L 431.04 69.12 
L 424.08 69.12 
L 417.12 69.12 
L 410.16 69.12 
L 403.2 69.12 
L 396.24 69.12 
L 389.28 69.12 
L 382.32 69.12 
L 375.36 69.12 
L 368.4 69.12 
L 361.44 69.12 
L 354.48 69.12 
L 347.52 69.12 
L 340.56 69.12 
L 333.6 69.12 
L 326.64 69.12 
L 319.68 69.12 
L 312.72 69.12 
L 305.76 69.12 
L 298.8 69.12 
L 291.84 69.12 
L 284.88 69.12 
L 277.92 69.12 
L 270.96 69.12 
L 264 69.12 
L 257.04 69.12 
L 250.08 69.12 
L 243.12 69.12 
L 236.16 69.12 
L 229.2 69.12 
L 222.24 69.12 
L 215.28 69.12 
L 208.32 69.12 
L 201.36 69.12 
L 194.4 69.12 
L 187.44 69.12 
L 180.48 69.12 
L 173.52 69.12 
L 166.56 69.12 
L 159.6 69.12 
L 152.64 69.12 
L 145.68 69.12 
L 138.72 69.12 
L 131.76 69.12 
L 124.8 69.12 
L 117.84 69.12 
L 110.88 69.12 
L 103.92 69.12 
L 96.96 69.12 
L 90 69.12 
L 83.04 69.12 
L 76.08 69.12 
L 69.12 69.12 
z
" style="fill:#bfbf00;"/>
   </g>
   <g id="line2d_29">
    <path clip-path="url(#p430f3826c7)" d="M 264 504 
L 264 69.12 
" style="fill:none;stroke:#008fd5;stroke-width:2;"/>
   </g>
   <g id="line2d_30">
    <path clip-path="url(#p430f3826c7)" d="M 591.12 504 
L 591.12 69.12 
" style="fill:none;stroke:#008fd5;stroke-width:2;"/>
   </g>
   <g id="patch_3">
    <path d="M 69.12 504 
L 69.12 69.12 
" style="fill:none;stroke:#f0f0f0;stroke-linecap:square;stroke-linejoin:miter;stroke-width:3;"/>
   </g>
   <g id="patch_4">
    <path d="M 820.8 504 
L 820.8 69.12 
" style="fill:none;stroke:#f0f0f0;stroke-linecap:square;stroke-linejoin:miter;stroke-width:3;"/>
   </g>
   <g id="patch_5">
    <path d="M 69.12 504 
L 820.8 504 
" style="fill:none;stroke:#f0f0f0;stroke-linecap:square;stroke-linejoin:miter;stroke-width:3;"/>
   </g>
   <g id="patch_6">
    <path d="M 69.12 69.12 
L 820.8 69.12 
" style="fill:none;stroke:#f0f0f0;stroke-linecap:square;stroke-linejoin:miter;stroke-width:3;"/>
   </g>
   <g id="text_18">
    <!-- Arrest Date -->
    <defs>
     <path d="M 44.28125 53.078125 
L 44.28125 44.578125 
Q 40.484375 46.53125 36.375 47.5 
Q 32.28125 48.484375 27.875 48.484375 
Q 21.1875 48.484375 17.84375 46.4375 
Q 14.5 44.390625 14.5 40.28125 
Q 14.5 37.15625 16.890625 35.375 
Q 19.28125 33.59375 26.515625 31.984375 
L 29.59375 31.296875 
Q 39.15625 29.25 43.1875 25.515625 
Q 47.21875 21.78125 47.21875 15.09375 
Q 47.21875 7.46875 41.1875 3.015625 
Q 35.15625 -1.421875 24.609375 -1.421875 
Q 20.21875 -1.421875 15.453125 -0.5625 
Q 10.6875 0.296875 5.421875 2 
L 5.421875 11.28125 
Q 10.40625 8.6875 15.234375 7.390625 
Q 20.0625 6.109375 24.8125 6.109375 
Q 31.15625 6.109375 34.5625 8.28125 
Q 37.984375 10.453125 37.984375 14.40625 
Q 37.984375 18.0625 35.515625 20.015625 
Q 33.0625 21.96875 24.703125 23.78125 
L 21.578125 24.515625 
Q 13.234375 26.265625 9.515625 29.90625 
Q 5.8125 33.546875 5.8125 39.890625 
Q 5.8125 47.609375 11.28125 51.796875 
Q 16.75 56 26.8125 56 
Q 31.78125 56 36.171875 55.265625 
Q 40.578125 54.546875 44.28125 53.078125 
z
" id="DejaVuSans-115"/>
     <path id="DejaVuSans-32"/>
    </defs>
    <g transform="translate(270.96 156.096)scale(0.1 -0.1)">
     <use xlink:href="#DejaVuSans-65"/>
     <use x="68.408203" xlink:href="#DejaVuSans-114"/>
     <use x="107.771484" xlink:href="#DejaVuSans-114"/>
     <use x="146.634766" xlink:href="#DejaVuSans-101"/>
     <use x="208.158203" xlink:href="#DejaVuSans-115"/>
     <use x="260.257812" xlink:href="#DejaVuSans-116"/>
     <use x="299.466797" xlink:href="#DejaVuSans-32"/>
     <use x="331.253906" xlink:href="#DejaVuSans-68"/>
     <use x="408.255859" xlink:href="#DejaVuSans-97"/>
     <use x="469.535156" xlink:href="#DejaVuSans-116"/>
     <use x="508.744141" xlink:href="#DejaVuSans-101"/>
    </g>
   </g>
   <g id="text_19">
    <!-- Training Date -->
    <defs>
     <path d="M -0.296875 72.90625 
L 61.375 72.90625 
L 61.375 64.59375 
L 35.5 64.59375 
L 35.5 0 
L 25.59375 0 
L 25.59375 64.59375 
L -0.296875 64.59375 
z
" id="DejaVuSans-84"/>
     <path d="M 9.421875 54.6875 
L 18.40625 54.6875 
L 18.40625 0 
L 9.421875 0 
z
M 9.421875 75.984375 
L 18.40625 75.984375 
L 18.40625 64.59375 
L 9.421875 64.59375 
z
" id="DejaVuSans-105"/>
    </defs>
    <g transform="translate(598.08 112.608)scale(0.1 -0.1)">
     <use xlink:href="#DejaVuSans-84"/>
     <use x="46.333984" xlink:href="#DejaVuSans-114"/>
     <use x="87.447266" xlink:href="#DejaVuSans-97"/>
     <use x="148.726562" xlink:href="#DejaVuSans-105"/>
     <use x="176.509766" xlink:href="#DejaVuSans-110"/>
     <use x="239.888672" xlink:href="#DejaVuSans-105"/>
     <use x="267.671875" xlink:href="#DejaVuSans-110"/>
     <use x="331.050781" xlink:href="#DejaVuSans-103"/>
     <use x="394.527344" xlink:href="#DejaVuSans-32"/>
     <use x="426.314453" xlink:href="#DejaVuSans-68"/>
     <use x="503.316406" xlink:href="#DejaVuSans-97"/>
     <use x="564.595703" xlink:href="#DejaVuSans-116"/>
     <use x="603.804688" xlink:href="#DejaVuSans-101"/>
    </g>
   </g>
   <g id="text_20">
    <!-- Sentiment Percentages by Date  -->
    <defs>
     <path d="M 53.515625 70.515625 
L 53.515625 60.890625 
Q 47.90625 63.578125 42.921875 64.890625 
Q 37.9375 66.21875 33.296875 66.21875 
Q 25.25 66.21875 20.875 63.09375 
Q 16.5 59.96875 16.5 54.203125 
Q 16.5 49.359375 19.40625 46.890625 
Q 22.3125 44.4375 30.421875 42.921875 
L 36.375 41.703125 
Q 47.40625 39.59375 52.65625 34.296875 
Q 57.90625 29 57.90625 20.125 
Q 57.90625 9.515625 50.796875 4.046875 
Q 43.703125 -1.421875 29.984375 -1.421875 
Q 24.8125 -1.421875 18.96875 -0.25 
Q 13.140625 0.921875 6.890625 3.21875 
L 6.890625 13.375 
Q 12.890625 10.015625 18.65625 8.296875 
Q 24.421875 6.59375 29.984375 6.59375 
Q 38.421875 6.59375 43.015625 9.90625 
Q 47.609375 13.234375 47.609375 19.390625 
Q 47.609375 24.75 44.3125 27.78125 
Q 41.015625 30.8125 33.5 32.328125 
L 27.484375 33.5 
Q 16.453125 35.6875 11.515625 40.375 
Q 6.59375 45.0625 6.59375 53.421875 
Q 6.59375 63.09375 13.40625 68.65625 
Q 20.21875 74.21875 32.171875 74.21875 
Q 37.3125 74.21875 42.625 73.28125 
Q 47.953125 72.359375 53.515625 70.515625 
z
" id="DejaVuSans-83"/>
     <path d="M 52 44.1875 
Q 55.375 50.25 60.0625 53.125 
Q 64.75 56 71.09375 56 
Q 79.640625 56 84.28125 50.015625 
Q 88.921875 44.046875 88.921875 33.015625 
L 88.921875 0 
L 79.890625 0 
L 79.890625 32.71875 
Q 79.890625 40.578125 77.09375 44.375 
Q 74.3125 48.1875 68.609375 48.1875 
Q 61.625 48.1875 57.5625 43.546875 
Q 53.515625 38.921875 53.515625 30.90625 
L 53.515625 0 
L 44.484375 0 
L 44.484375 32.71875 
Q 44.484375 40.625 41.703125 44.40625 
Q 38.921875 48.1875 33.109375 48.1875 
Q 26.21875 48.1875 22.15625 43.53125 
Q 18.109375 38.875 18.109375 30.90625 
L 18.109375 0 
L 9.078125 0 
L 9.078125 54.6875 
L 18.109375 54.6875 
L 18.109375 46.1875 
Q 21.1875 51.21875 25.484375 53.609375 
Q 29.78125 56 35.6875 56 
Q 41.65625 56 45.828125 52.96875 
Q 50 49.953125 52 44.1875 
z
" id="DejaVuSans-109"/>
     <path d="M 48.6875 27.296875 
Q 48.6875 37.203125 44.609375 42.84375 
Q 40.53125 48.484375 33.40625 48.484375 
Q 26.265625 48.484375 22.1875 42.84375 
Q 18.109375 37.203125 18.109375 27.296875 
Q 18.109375 17.390625 22.1875 11.75 
Q 26.265625 6.109375 33.40625 6.109375 
Q 40.53125 6.109375 44.609375 11.75 
Q 48.6875 17.390625 48.6875 27.296875 
z
M 18.109375 46.390625 
Q 20.953125 51.265625 25.265625 53.625 
Q 29.59375 56 35.59375 56 
Q 45.5625 56 51.78125 48.09375 
Q 58.015625 40.1875 58.015625 27.296875 
Q 58.015625 14.40625 51.78125 6.484375 
Q 45.5625 -1.421875 35.59375 -1.421875 
Q 29.59375 -1.421875 25.265625 0.953125 
Q 20.953125 3.328125 18.109375 8.203125 
L 18.109375 0 
L 9.078125 0 
L 9.078125 75.984375 
L 18.109375 75.984375 
z
" id="DejaVuSans-98"/>
    </defs>
    <g transform="translate(328.302 46.99515)scale(0.144 -0.144)">
     <use xlink:href="#DejaVuSans-83"/>
     <use x="63.476562" xlink:href="#DejaVuSans-101"/>
     <use x="125" xlink:href="#DejaVuSans-110"/>
     <use x="188.378906" xlink:href="#DejaVuSans-116"/>
     <use x="227.587891" xlink:href="#DejaVuSans-105"/>
     <use x="255.371094" xlink:href="#DejaVuSans-109"/>
     <use x="352.783203" xlink:href="#DejaVuSans-101"/>
     <use x="414.306641" xlink:href="#DejaVuSans-110"/>
     <use x="477.685547" xlink:href="#DejaVuSans-116"/>
     <use x="516.894531" xlink:href="#DejaVuSans-32"/>
     <use x="548.681641" xlink:href="#DejaVuSans-80"/>
     <use x="605.359375" xlink:href="#DejaVuSans-101"/>
     <use x="666.882812" xlink:href="#DejaVuSans-114"/>
     <use x="705.746094" xlink:href="#DejaVuSans-99"/>
     <use x="760.726562" xlink:href="#DejaVuSans-101"/>
     <use x="822.25" xlink:href="#DejaVuSans-110"/>
     <use x="885.628906" xlink:href="#DejaVuSans-116"/>
     <use x="924.837891" xlink:href="#DejaVuSans-97"/>
     <use x="986.117188" xlink:href="#DejaVuSans-103"/>
     <use x="1049.59375" xlink:href="#DejaVuSans-101"/>
     <use x="1111.117188" xlink:href="#DejaVuSans-115"/>
     <use x="1163.216797" xlink:href="#DejaVuSans-32"/>
     <use x="1195.003906" xlink:href="#DejaVuSans-98"/>
     <use x="1258.480469" xlink:href="#DejaVuSans-121"/>
     <use x="1317.660156" xlink:href="#DejaVuSans-32"/>
     <use x="1349.447266" xlink:href="#DejaVuSans-68"/>
     <use x="1426.449219" xlink:href="#DejaVuSans-97"/>
     <use x="1487.728516" xlink:href="#DejaVuSans-116"/>
     <use x="1526.9375" xlink:href="#DejaVuSans-101"/>
     <use x="1588.460938" xlink:href="#DejaVuSans-32"/>
    </g>
    <!-- (All discussions) -->
    <defs>
     <path d="M 31 75.875 
Q 24.46875 64.65625 21.28125 53.65625 
Q 18.109375 42.671875 18.109375 31.390625 
Q 18.109375 20.125 21.3125 9.0625 
Q 24.515625 -2 31 -13.1875 
L 23.1875 -13.1875 
Q 15.875 -1.703125 12.234375 9.375 
Q 8.59375 20.453125 8.59375 31.390625 
Q 8.59375 42.28125 12.203125 53.3125 
Q 15.828125 64.359375 23.1875 75.875 
z
" id="DejaVuSans-40"/>
     <path d="M 45.40625 46.390625 
L 45.40625 75.984375 
L 54.390625 75.984375 
L 54.390625 0 
L 45.40625 0 
L 45.40625 8.203125 
Q 42.578125 3.328125 38.25 0.953125 
Q 33.9375 -1.421875 27.875 -1.421875 
Q 17.96875 -1.421875 11.734375 6.484375 
Q 5.515625 14.40625 5.515625 27.296875 
Q 5.515625 40.1875 11.734375 48.09375 
Q 17.96875 56 27.875 56 
Q 33.9375 56 38.25 53.625 
Q 42.578125 51.265625 45.40625 46.390625 
z
M 14.796875 27.296875 
Q 14.796875 17.390625 18.875 11.75 
Q 22.953125 6.109375 30.078125 6.109375 
Q 37.203125 6.109375 41.296875 11.75 
Q 45.40625 17.390625 45.40625 27.296875 
Q 45.40625 37.203125 41.296875 42.84375 
Q 37.203125 48.484375 30.078125 48.484375 
Q 22.953125 48.484375 18.875 42.84375 
Q 14.796875 37.203125 14.796875 27.296875 
z
" id="DejaVuSans-100"/>
     <path d="M 30.609375 48.390625 
Q 23.390625 48.390625 19.1875 42.75 
Q 14.984375 37.109375 14.984375 27.296875 
Q 14.984375 17.484375 19.15625 11.84375 
Q 23.34375 6.203125 30.609375 6.203125 
Q 37.796875 6.203125 41.984375 11.859375 
Q 46.1875 17.53125 46.1875 27.296875 
Q 46.1875 37.015625 41.984375 42.703125 
Q 37.796875 48.390625 30.609375 48.390625 
z
M 30.609375 56 
Q 42.328125 56 49.015625 48.375 
Q 55.71875 40.765625 55.71875 27.296875 
Q 55.71875 13.875 49.015625 6.21875 
Q 42.328125 -1.421875 30.609375 -1.421875 
Q 18.84375 -1.421875 12.171875 6.21875 
Q 5.515625 13.875 5.515625 27.296875 
Q 5.515625 40.765625 12.171875 48.375 
Q 18.84375 56 30.609375 56 
z
" id="DejaVuSans-111"/>
     <path d="M 8.015625 75.875 
L 15.828125 75.875 
Q 23.140625 64.359375 26.78125 53.3125 
Q 30.421875 42.28125 30.421875 31.390625 
Q 30.421875 20.453125 26.78125 9.375 
Q 23.140625 -1.703125 15.828125 -13.1875 
L 8.015625 -13.1875 
Q 14.5 -2 17.703125 9.0625 
Q 20.90625 20.125 20.90625 31.390625 
Q 20.90625 42.671875 17.703125 53.65625 
Q 14.5 64.65625 8.015625 75.875 
z
" id="DejaVuSans-41"/>
    </defs>
    <g transform="translate(387.063 63.12)scale(0.144 -0.144)">
     <use xlink:href="#DejaVuSans-40"/>
     <use x="39.013672" xlink:href="#DejaVuSans-65"/>
     <use x="107.421875" xlink:href="#DejaVuSans-108"/>
     <use x="135.205078" xlink:href="#DejaVuSans-108"/>
     <use x="162.988281" xlink:href="#DejaVuSans-32"/>
     <use x="194.775391" xlink:href="#DejaVuSans-100"/>
     <use x="258.251953" xlink:href="#DejaVuSans-105"/>
     <use x="286.035156" xlink:href="#DejaVuSans-115"/>
     <use x="338.134766" xlink:href="#DejaVuSans-99"/>
     <use x="393.115234" xlink:href="#DejaVuSans-117"/>
     <use x="456.494141" xlink:href="#DejaVuSans-115"/>
     <use x="508.59375" xlink:href="#DejaVuSans-115"/>
     <use x="560.693359" xlink:href="#DejaVuSans-105"/>
     <use x="588.476562" xlink:href="#DejaVuSans-111"/>
     <use x="649.658203" xlink:href="#DejaVuSans-110"/>
     <use x="713.037109" xlink:href="#DejaVuSans-115"/>
     <use x="765.136719" xlink:href="#DejaVuSans-41"/>
    </g>
   </g>
   <g id="legend_1">
    <g id="patch_7">
     <path d="M 76.12 121.154375 
L 153.00125 121.154375 
Q 155.00125 121.154375 155.00125 119.154375 
L 155.00125 76.12 
Q 155.00125 74.12 153.00125 74.12 
L 76.12 74.12 
Q 74.12 74.12 74.12 76.12 
L 74.12 119.154375 
Q 74.12 121.154375 76.12 121.154375 
z
" style="fill:#f0f0f0;opacity:0.8;stroke:#cccccc;stroke-linejoin:miter;stroke-width:0.5;"/>
    </g>
    <g id="patch_8">
     <path d="M 78.12 85.718437 
L 98.12 85.718437 
L 98.12 78.718437 
L 78.12 78.718437 
z
" style="fill:#ff0000;"/>
    </g>
    <g id="text_21">
     <!-- Negative -->
     <defs>
      <path d="M 9.8125 72.90625 
L 23.09375 72.90625 
L 55.421875 11.921875 
L 55.421875 72.90625 
L 64.984375 72.90625 
L 64.984375 0 
L 51.703125 0 
L 19.390625 60.984375 
L 19.390625 0 
L 9.8125 0 
z
" id="DejaVuSans-78"/>
      <path d="M 2.984375 54.6875 
L 12.5 54.6875 
L 29.59375 8.796875 
L 46.6875 54.6875 
L 56.203125 54.6875 
L 35.6875 0 
L 23.484375 0 
z
" id="DejaVuSans-118"/>
     </defs>
     <g transform="translate(106.12 85.718437)scale(0.1 -0.1)">
      <use xlink:href="#DejaVuSans-78"/>
      <use x="74.804688" xlink:href="#DejaVuSans-101"/>
      <use x="136.328125" xlink:href="#DejaVuSans-103"/>
      <use x="199.804688" xlink:href="#DejaVuSans-97"/>
      <use x="261.083984" xlink:href="#DejaVuSans-116"/>
      <use x="300.292969" xlink:href="#DejaVuSans-105"/>
      <use x="328.076172" xlink:href="#DejaVuSans-118"/>
      <use x="387.255859" xlink:href="#DejaVuSans-101"/>
     </g>
    </g>
    <g id="patch_9">
     <path d="M 78.12 100.396563 
L 98.12 100.396563 
L 98.12 93.396563 
L 78.12 93.396563 
z
" style="fill:#008000;"/>
    </g>
    <g id="text_22">
     <!-- Positive -->
     <g transform="translate(106.12 100.396563)scale(0.1 -0.1)">
      <use xlink:href="#DejaVuSans-80"/>
      <use x="56.677734" xlink:href="#DejaVuSans-111"/>
      <use x="117.859375" xlink:href="#DejaVuSans-115"/>
      <use x="169.958984" xlink:href="#DejaVuSans-105"/>
      <use x="197.742188" xlink:href="#DejaVuSans-116"/>
      <use x="236.951172" xlink:href="#DejaVuSans-105"/>
      <use x="264.734375" xlink:href="#DejaVuSans-118"/>
      <use x="323.914062" xlink:href="#DejaVuSans-101"/>
     </g>
    </g>
    <g id="patch_10">
     <path d="M 78.12 115.074687 
L 98.12 115.074687 
L 98.12 108.074687 
L 78.12 108.074687 
z
" style="fill:#bfbf00;"/>
    </g>
    <g id="text_23">
     <!-- Neutral -->
     <g transform="translate(106.12 115.074687)scale(0.1 -0.1)">
      <use xlink:href="#DejaVuSans-78"/>
      <use x="74.804688" xlink:href="#DejaVuSans-101"/>
      <use x="136.328125" xlink:href="#DejaVuSans-117"/>
      <use x="199.707031" xlink:href="#DejaVuSans-116"/>
      <use x="238.916016" xlink:href="#DejaVuSans-114"/>
      <use x="280.029297" xlink:href="#DejaVuSans-97"/>
      <use x="341.308594" xlink:href="#DejaVuSans-108"/>
     </g>
    </g>
   </g>
  </g>
 </g>
 <defs>
  <clipPath id="p430f3826c7">
   <rect height="434.88" width="751.68" x="69.12" y="69.12"/>
  </clipPath>
 </defs>
</svg>
