<?xml version="1.0" encoding="utf-8" standalone="no"?>
<!DOCTYPE svg PUBLIC "-//W3C//DTD SVG 1.1//EN"
  "http://www.w3.org/Graphics/SVG/1.1/DTD/svg11.dtd">
<!-- Created with matplotlib (https://matplotlib.org/) -->
<svg height="576pt" version="1.1" viewBox="0 0 864 576" width="864pt" xmlns="http://www.w3.org/2000/svg" xmlns:xlink="http://www.w3.org/1999/xlink">
 <defs>
  <style type="text/css">
*{stroke-linecap:butt;stroke-linejoin:round;}
  </style>
 </defs>
 <g id="figure_1">
  <g id="patch_1">
   <path d="M 0 576 
L 864 576 
L 864 0 
L 0 0 
z
" style="fill:#f0f0f0;"/>
  </g>
  <g id="axes_1">
   <g id="patch_2">
    <path d="M 69.12 504 
L 820.8 504 
L 820.8 69.12 
L 69.12 69.12 
z
" style="fill:#f0f0f0;"/>
   </g>
   <g id="matplotlib.axis_1">
    <g id="xtick_1">
     <g id="line2d_1">
      <path clip-path="url(#p46b935f695)" d="M 69.12 504 
L 69.12 69.12 
" style="fill:none;stroke:#cbcbcb;"/>
     </g>
     <g id="line2d_2"/>
     <g id="text_1">
      <!-- 15 -->
      <defs>
       <path d="M 12.40625 8.296875 
L 28.515625 8.296875 
L 28.515625 63.921875 
L 10.984375 60.40625 
L 10.984375 69.390625 
L 28.421875 72.90625 
L 38.28125 72.90625 
L 38.28125 8.296875 
L 54.390625 8.296875 
L 54.390625 0 
L 12.40625 0 
z
" id="DejaVuSans-49"/>
       <path d="M 10.796875 72.90625 
L 49.515625 72.90625 
L 49.515625 64.59375 
L 19.828125 64.59375 
L 19.828125 46.734375 
Q 21.96875 47.46875 24.109375 47.828125 
Q 26.265625 48.1875 28.421875 48.1875 
Q 40.625 48.1875 47.75 41.5 
Q 54.890625 34.8125 54.890625 23.390625 
Q 54.890625 11.625 47.5625 5.09375 
Q 40.234375 -1.421875 26.90625 -1.421875 
Q 22.3125 -1.421875 17.546875 -0.640625 
Q 12.796875 0.140625 7.71875 1.703125 
L 7.71875 11.625 
Q 12.109375 9.234375 16.796875 8.0625 
Q 21.484375 6.890625 26.703125 6.890625 
Q 35.15625 6.890625 40.078125 11.328125 
Q 45.015625 15.765625 45.015625 23.390625 
Q 45.015625 31 40.078125 35.4375 
Q 35.15625 39.890625 26.703125 39.890625 
Q 22.75 39.890625 18.8125 39.015625 
Q 14.890625 38.140625 10.796875 36.28125 
z
" id="DejaVuSans-53"/>
      </defs>
      <g transform="translate(62.7575 515.098438)scale(0.1 -0.1)">
       <use xlink:href="#DejaVuSans-49"/>
       <use x="63.623047" xlink:href="#DejaVuSans-53"/>
      </g>
     </g>
    </g>
    <g id="xtick_2">
     <g id="line2d_3">
      <path clip-path="url(#p46b935f695)" d="M 187.44 504 
L 187.44 69.12 
" style="fill:none;stroke:#cbcbcb;"/>
     </g>
     <g id="line2d_4"/>
     <g id="text_2">
      <!-- Apr -->
      <defs>
       <path d="M 34.1875 63.1875 
L 20.796875 26.90625 
L 47.609375 26.90625 
z
M 28.609375 72.90625 
L 39.796875 72.90625 
L 67.578125 0 
L 57.328125 0 
L 50.6875 18.703125 
L 17.828125 18.703125 
L 11.1875 0 
L 0.78125 0 
z
" id="DejaVuSans-65"/>
       <path d="M 18.109375 8.203125 
L 18.109375 -20.796875 
L 9.078125 -20.796875 
L 9.078125 54.6875 
L 18.109375 54.6875 
L 18.109375 46.390625 
Q 20.953125 51.265625 25.265625 53.625 
Q 29.59375 56 35.59375 56 
Q 45.5625 56 51.78125 48.09375 
Q 58.015625 40.1875 58.015625 27.296875 
Q 58.015625 14.40625 51.78125 6.484375 
Q 45.5625 -1.421875 35.59375 -1.421875 
Q 29.59375 -1.421875 25.265625 0.953125 
Q 20.953125 3.328125 18.109375 8.203125 
z
M 48.6875 27.296875 
Q 48.6875 37.203125 44.609375 42.84375 
Q 40.53125 48.484375 33.40625 48.484375 
Q 26.265625 48.484375 22.1875 42.84375 
Q 18.109375 37.203125 18.109375 27.296875 
Q 18.109375 17.390625 22.1875 11.75 
Q 26.265625 6.109375 33.40625 6.109375 
Q 40.53125 6.109375 44.609375 11.75 
Q 48.6875 17.390625 48.6875 27.296875 
z
" id="DejaVuSans-112"/>
       <path d="M 41.109375 46.296875 
Q 39.59375 47.171875 37.8125 47.578125 
Q 36.03125 48 33.890625 48 
Q 26.265625 48 22.1875 43.046875 
Q 18.109375 38.09375 18.109375 28.8125 
L 18.109375 0 
L 9.078125 0 
L 9.078125 54.6875 
L 18.109375 54.6875 
L 18.109375 46.1875 
Q 20.953125 51.171875 25.484375 53.578125 
Q 30.03125 56 36.53125 56 
Q 37.453125 56 38.578125 55.875 
Q 39.703125 55.765625 41.0625 55.515625 
z
" id="DejaVuSans-114"/>
      </defs>
      <g transform="translate(178.79 515.098438)scale(0.1 -0.1)">
       <use xlink:href="#DejaVuSans-65"/>
       <use x="68.408203" xlink:href="#DejaVuSans-112"/>
       <use x="131.884766" xlink:href="#DejaVuSans-114"/>
      </g>
     </g>
    </g>
    <g id="xtick_3">
     <g id="line2d_5">
      <path clip-path="url(#p46b935f695)" d="M 284.88 504 
L 284.88 69.12 
" style="fill:none;stroke:#cbcbcb;"/>
     </g>
     <g id="line2d_6"/>
     <g id="text_3">
      <!-- 15 -->
      <g transform="translate(278.5175 515.098438)scale(0.1 -0.1)">
       <use xlink:href="#DejaVuSans-49"/>
       <use x="63.623047" xlink:href="#DejaVuSans-53"/>
      </g>
     </g>
    </g>
    <g id="xtick_4">
     <g id="line2d_7">
      <path clip-path="url(#p46b935f695)" d="M 396.24 504 
L 396.24 69.12 
" style="fill:none;stroke:#cbcbcb;"/>
     </g>
     <g id="line2d_8"/>
     <g id="text_4">
      <!-- May -->
      <defs>
       <path d="M 9.8125 72.90625 
L 24.515625 72.90625 
L 43.109375 23.296875 
L 61.8125 72.90625 
L 76.515625 72.90625 
L 76.515625 0 
L 66.890625 0 
L 66.890625 64.015625 
L 48.09375 14.015625 
L 38.1875 14.015625 
L 19.390625 64.015625 
L 19.390625 0 
L 9.8125 0 
z
" id="DejaVuSans-77"/>
       <path d="M 34.28125 27.484375 
Q 23.390625 27.484375 19.1875 25 
Q 14.984375 22.515625 14.984375 16.5 
Q 14.984375 11.71875 18.140625 8.90625 
Q 21.296875 6.109375 26.703125 6.109375 
Q 34.1875 6.109375 38.703125 11.40625 
Q 43.21875 16.703125 43.21875 25.484375 
L 43.21875 27.484375 
z
M 52.203125 31.203125 
L 52.203125 0 
L 43.21875 0 
L 43.21875 8.296875 
Q 40.140625 3.328125 35.546875 0.953125 
Q 30.953125 -1.421875 24.3125 -1.421875 
Q 15.921875 -1.421875 10.953125 3.296875 
Q 6 8.015625 6 15.921875 
Q 6 25.140625 12.171875 29.828125 
Q 18.359375 34.515625 30.609375 34.515625 
L 43.21875 34.515625 
L 43.21875 35.40625 
Q 43.21875 41.609375 39.140625 45 
Q 35.0625 48.390625 27.6875 48.390625 
Q 23 48.390625 18.546875 47.265625 
Q 14.109375 46.140625 10.015625 43.890625 
L 10.015625 52.203125 
Q 14.9375 54.109375 19.578125 55.046875 
Q 24.21875 56 28.609375 56 
Q 40.484375 56 46.34375 49.84375 
Q 52.203125 43.703125 52.203125 31.203125 
z
" id="DejaVuSans-97"/>
       <path d="M 32.171875 -5.078125 
Q 28.375 -14.84375 24.75 -17.8125 
Q 21.140625 -20.796875 15.09375 -20.796875 
L 7.90625 -20.796875 
L 7.90625 -13.28125 
L 13.1875 -13.28125 
Q 16.890625 -13.28125 18.9375 -11.515625 
Q 21 -9.765625 23.484375 -3.21875 
L 25.09375 0.875 
L 2.984375 54.6875 
L 12.5 54.6875 
L 29.59375 11.921875 
L 46.6875 54.6875 
L 56.203125 54.6875 
z
" id="DejaVuSans-121"/>
      </defs>
      <g transform="translate(385.9025 515.098438)scale(0.1 -0.1)">
       <use xlink:href="#DejaVuSans-77"/>
       <use x="86.279297" xlink:href="#DejaVuSans-97"/>
       <use x="147.558594" xlink:href="#DejaVuSans-121"/>
      </g>
     </g>
    </g>
    <g id="xtick_5">
     <g id="line2d_9">
      <path clip-path="url(#p46b935f695)" d="M 493.68 504 
L 493.68 69.12 
" style="fill:none;stroke:#cbcbcb;"/>
     </g>
     <g id="line2d_10"/>
     <g id="text_5">
      <!-- 15 -->
      <g transform="translate(487.3175 515.098438)scale(0.1 -0.1)">
       <use xlink:href="#DejaVuSans-49"/>
       <use x="63.623047" xlink:href="#DejaVuSans-53"/>
      </g>
     </g>
    </g>
    <g id="xtick_6">
     <g id="line2d_11">
      <path clip-path="url(#p46b935f695)" d="M 612 504 
L 612 69.12 
" style="fill:none;stroke:#cbcbcb;"/>
     </g>
     <g id="line2d_12"/>
     <g id="text_6">
      <!-- Jun -->
      <defs>
       <path d="M 9.8125 72.90625 
L 19.671875 72.90625 
L 19.671875 5.078125 
Q 19.671875 -8.109375 14.671875 -14.0625 
Q 9.671875 -20.015625 -1.421875 -20.015625 
L -5.171875 -20.015625 
L -5.171875 -11.71875 
L -2.09375 -11.71875 
Q 4.4375 -11.71875 7.125 -8.046875 
Q 9.8125 -4.390625 9.8125 5.078125 
z
" id="DejaVuSans-74"/>
       <path d="M 8.5 21.578125 
L 8.5 54.6875 
L 17.484375 54.6875 
L 17.484375 21.921875 
Q 17.484375 14.15625 20.5 10.265625 
Q 23.53125 6.390625 29.59375 6.390625 
Q 36.859375 6.390625 41.078125 11.03125 
Q 45.3125 15.671875 45.3125 23.6875 
L 45.3125 54.6875 
L 54.296875 54.6875 
L 54.296875 0 
L 45.3125 0 
L 45.3125 8.40625 
Q 42.046875 3.421875 37.71875 1 
Q 33.40625 -1.421875 27.6875 -1.421875 
Q 18.265625 -1.421875 13.375 4.4375 
Q 8.5 10.296875 8.5 21.578125 
z
M 31.109375 56 
z
" id="DejaVuSans-117"/>
       <path d="M 54.890625 33.015625 
L 54.890625 0 
L 45.90625 0 
L 45.90625 32.71875 
Q 45.90625 40.484375 42.875 44.328125 
Q 39.84375 48.1875 33.796875 48.1875 
Q 26.515625 48.1875 22.3125 43.546875 
Q 18.109375 38.921875 18.109375 30.90625 
L 18.109375 0 
L 9.078125 0 
L 9.078125 54.6875 
L 18.109375 54.6875 
L 18.109375 46.1875 
Q 21.34375 51.125 25.703125 53.5625 
Q 30.078125 56 35.796875 56 
Q 45.21875 56 50.046875 50.171875 
Q 54.890625 44.34375 54.890625 33.015625 
z
" id="DejaVuSans-110"/>
      </defs>
      <g transform="translate(604.1875 515.098438)scale(0.1 -0.1)">
       <use xlink:href="#DejaVuSans-74"/>
       <use x="29.492188" xlink:href="#DejaVuSans-117"/>
       <use x="92.871094" xlink:href="#DejaVuSans-110"/>
      </g>
     </g>
    </g>
    <g id="xtick_7">
     <g id="line2d_13">
      <path clip-path="url(#p46b935f695)" d="M 709.44 504 
L 709.44 69.12 
" style="fill:none;stroke:#cbcbcb;"/>
     </g>
     <g id="line2d_14"/>
     <g id="text_7">
      <!-- 15 -->
      <g transform="translate(703.0775 515.098438)scale(0.1 -0.1)">
       <use xlink:href="#DejaVuSans-49"/>
       <use x="63.623047" xlink:href="#DejaVuSans-53"/>
      </g>
     </g>
    </g>
    <g id="xtick_8">
     <g id="line2d_15">
      <path clip-path="url(#p46b935f695)" d="M 820.8 504 
L 820.8 69.12 
" style="fill:none;stroke:#cbcbcb;"/>
     </g>
     <g id="line2d_16"/>
     <g id="text_8">
      <!-- Jul -->
      <defs>
       <path d="M 9.421875 75.984375 
L 18.40625 75.984375 
L 18.40625 0 
L 9.421875 0 
z
" id="DejaVuSans-108"/>
      </defs>
      <g transform="translate(814.767187 515.098438)scale(0.1 -0.1)">
       <use xlink:href="#DejaVuSans-74"/>
       <use x="29.492188" xlink:href="#DejaVuSans-117"/>
       <use x="92.871094" xlink:href="#DejaVuSans-108"/>
      </g>
     </g>
    </g>
    <g id="text_9">
     <!-- 2018-Jul -->
     <defs>
      <path d="M 19.1875 8.296875 
L 53.609375 8.296875 
L 53.609375 0 
L 7.328125 0 
L 7.328125 8.296875 
Q 12.9375 14.109375 22.625 23.890625 
Q 32.328125 33.6875 34.8125 36.53125 
Q 39.546875 41.84375 41.421875 45.53125 
Q 43.3125 49.21875 43.3125 52.78125 
Q 43.3125 58.59375 39.234375 62.25 
Q 35.15625 65.921875 28.609375 65.921875 
Q 23.96875 65.921875 18.8125 64.3125 
Q 13.671875 62.703125 7.8125 59.421875 
L 7.8125 69.390625 
Q 13.765625 71.78125 18.9375 73 
Q 24.125 74.21875 28.421875 74.21875 
Q 39.75 74.21875 46.484375 68.546875 
Q 53.21875 62.890625 53.21875 53.421875 
Q 53.21875 48.921875 51.53125 44.890625 
Q 49.859375 40.875 45.40625 35.40625 
Q 44.1875 33.984375 37.640625 27.21875 
Q 31.109375 20.453125 19.1875 8.296875 
z
" id="DejaVuSans-50"/>
      <path d="M 31.78125 66.40625 
Q 24.171875 66.40625 20.328125 58.90625 
Q 16.5 51.421875 16.5 36.375 
Q 16.5 21.390625 20.328125 13.890625 
Q 24.171875 6.390625 31.78125 6.390625 
Q 39.453125 6.390625 43.28125 13.890625 
Q 47.125 21.390625 47.125 36.375 
Q 47.125 51.421875 43.28125 58.90625 
Q 39.453125 66.40625 31.78125 66.40625 
z
M 31.78125 74.21875 
Q 44.046875 74.21875 50.515625 64.515625 
Q 56.984375 54.828125 56.984375 36.375 
Q 56.984375 17.96875 50.515625 8.265625 
Q 44.046875 -1.421875 31.78125 -1.421875 
Q 19.53125 -1.421875 13.0625 8.265625 
Q 6.59375 17.96875 6.59375 36.375 
Q 6.59375 54.828125 13.0625 64.515625 
Q 19.53125 74.21875 31.78125 74.21875 
z
" id="DejaVuSans-48"/>
      <path d="M 31.78125 34.625 
Q 24.75 34.625 20.71875 30.859375 
Q 16.703125 27.09375 16.703125 20.515625 
Q 16.703125 13.921875 20.71875 10.15625 
Q 24.75 6.390625 31.78125 6.390625 
Q 38.8125 6.390625 42.859375 10.171875 
Q 46.921875 13.96875 46.921875 20.515625 
Q 46.921875 27.09375 42.890625 30.859375 
Q 38.875 34.625 31.78125 34.625 
z
M 21.921875 38.8125 
Q 15.578125 40.375 12.03125 44.71875 
Q 8.5 49.078125 8.5 55.328125 
Q 8.5 64.0625 14.71875 69.140625 
Q 20.953125 74.21875 31.78125 74.21875 
Q 42.671875 74.21875 48.875 69.140625 
Q 55.078125 64.0625 55.078125 55.328125 
Q 55.078125 49.078125 51.53125 44.71875 
Q 48 40.375 41.703125 38.8125 
Q 48.828125 37.15625 52.796875 32.3125 
Q 56.78125 27.484375 56.78125 20.515625 
Q 56.78125 9.90625 50.3125 4.234375 
Q 43.84375 -1.421875 31.78125 -1.421875 
Q 19.734375 -1.421875 13.25 4.234375 
Q 6.78125 9.90625 6.78125 20.515625 
Q 6.78125 27.484375 10.78125 32.3125 
Q 14.796875 37.15625 21.921875 38.8125 
z
M 18.3125 54.390625 
Q 18.3125 48.734375 21.84375 45.5625 
Q 25.390625 42.390625 31.78125 42.390625 
Q 38.140625 42.390625 41.71875 45.5625 
Q 45.3125 48.734375 45.3125 54.390625 
Q 45.3125 60.0625 41.71875 63.234375 
Q 38.140625 66.40625 31.78125 66.40625 
Q 25.390625 66.40625 21.84375 63.234375 
Q 18.3125 60.0625 18.3125 54.390625 
z
" id="DejaVuSans-56"/>
      <path d="M 4.890625 31.390625 
L 31.203125 31.390625 
L 31.203125 23.390625 
L 4.890625 23.390625 
z
" id="DejaVuSans-45"/>
     </defs>
     <g transform="translate(779.114062 527.776562)scale(0.1 -0.1)">
      <use xlink:href="#DejaVuSans-50"/>
      <use x="63.623047" xlink:href="#DejaVuSans-48"/>
      <use x="127.246094" xlink:href="#DejaVuSans-49"/>
      <use x="190.869141" xlink:href="#DejaVuSans-56"/>
      <use x="254.492188" xlink:href="#DejaVuSans-45"/>
      <use x="296.201172" xlink:href="#DejaVuSans-74"/>
      <use x="325.693359" xlink:href="#DejaVuSans-117"/>
      <use x="389.072266" xlink:href="#DejaVuSans-108"/>
     </g>
    </g>
   </g>
   <g id="matplotlib.axis_2">
    <g id="ytick_1">
     <g id="line2d_17">
      <path clip-path="url(#p46b935f695)" d="M 69.12 504 
L 820.8 504 
" style="fill:none;stroke:#cbcbcb;"/>
     </g>
     <g id="line2d_18"/>
     <g id="text_10">
      <!-- 0 -->
      <g transform="translate(59.2575 507.799219)scale(0.1 -0.1)">
       <use xlink:href="#DejaVuSans-48"/>
      </g>
     </g>
    </g>
    <g id="ytick_2">
     <g id="line2d_19">
      <path clip-path="url(#p46b935f695)" d="M 69.12 452.626108 
L 820.8 452.626108 
" style="fill:none;stroke:#cbcbcb;"/>
     </g>
     <g id="line2d_20"/>
     <g id="text_11">
      <!-- 1000 -->
      <g transform="translate(40.17 456.425326)scale(0.1 -0.1)">
       <use xlink:href="#DejaVuSans-49"/>
       <use x="63.623047" xlink:href="#DejaVuSans-48"/>
       <use x="127.246094" xlink:href="#DejaVuSans-48"/>
       <use x="190.869141" xlink:href="#DejaVuSans-48"/>
      </g>
     </g>
    </g>
    <g id="ytick_3">
     <g id="line2d_21">
      <path clip-path="url(#p46b935f695)" d="M 69.12 401.252215 
L 820.8 401.252215 
" style="fill:none;stroke:#cbcbcb;"/>
     </g>
     <g id="line2d_22"/>
     <g id="text_12">
      <!-- 2000 -->
      <g transform="translate(40.17 405.051434)scale(0.1 -0.1)">
       <use xlink:href="#DejaVuSans-50"/>
       <use x="63.623047" xlink:href="#DejaVuSans-48"/>
       <use x="127.246094" xlink:href="#DejaVuSans-48"/>
       <use x="190.869141" xlink:href="#DejaVuSans-48"/>
      </g>
     </g>
    </g>
    <g id="ytick_4">
     <g id="line2d_23">
      <path clip-path="url(#p46b935f695)" d="M 69.12 349.878323 
L 820.8 349.878323 
" style="fill:none;stroke:#cbcbcb;"/>
     </g>
     <g id="line2d_24"/>
     <g id="text_13">
      <!-- 3000 -->
      <defs>
       <path d="M 40.578125 39.3125 
Q 47.65625 37.796875 51.625 33 
Q 55.609375 28.21875 55.609375 21.1875 
Q 55.609375 10.40625 48.1875 4.484375 
Q 40.765625 -1.421875 27.09375 -1.421875 
Q 22.515625 -1.421875 17.65625 -0.515625 
Q 12.796875 0.390625 7.625 2.203125 
L 7.625 11.71875 
Q 11.71875 9.328125 16.59375 8.109375 
Q 21.484375 6.890625 26.8125 6.890625 
Q 36.078125 6.890625 40.9375 10.546875 
Q 45.796875 14.203125 45.796875 21.1875 
Q 45.796875 27.640625 41.28125 31.265625 
Q 36.765625 34.90625 28.71875 34.90625 
L 20.21875 34.90625 
L 20.21875 43.015625 
L 29.109375 43.015625 
Q 36.375 43.015625 40.234375 45.921875 
Q 44.09375 48.828125 44.09375 54.296875 
Q 44.09375 59.90625 40.109375 62.90625 
Q 36.140625 65.921875 28.71875 65.921875 
Q 24.65625 65.921875 20.015625 65.03125 
Q 15.375 64.15625 9.8125 62.3125 
L 9.8125 71.09375 
Q 15.4375 72.65625 20.34375 73.4375 
Q 25.25 74.21875 29.59375 74.21875 
Q 40.828125 74.21875 47.359375 69.109375 
Q 53.90625 64.015625 53.90625 55.328125 
Q 53.90625 49.265625 50.4375 45.09375 
Q 46.96875 40.921875 40.578125 39.3125 
z
" id="DejaVuSans-51"/>
      </defs>
      <g transform="translate(40.17 353.677541)scale(0.1 -0.1)">
       <use xlink:href="#DejaVuSans-51"/>
       <use x="63.623047" xlink:href="#DejaVuSans-48"/>
       <use x="127.246094" xlink:href="#DejaVuSans-48"/>
       <use x="190.869141" xlink:href="#DejaVuSans-48"/>
      </g>
     </g>
    </g>
    <g id="ytick_5">
     <g id="line2d_25">
      <path clip-path="url(#p46b935f695)" d="M 69.12 298.50443 
L 820.8 298.50443 
" style="fill:none;stroke:#cbcbcb;"/>
     </g>
     <g id="line2d_26"/>
     <g id="text_14">
      <!-- 4000 -->
      <defs>
       <path d="M 37.796875 64.3125 
L 12.890625 25.390625 
L 37.796875 25.390625 
z
M 35.203125 72.90625 
L 47.609375 72.90625 
L 47.609375 25.390625 
L 58.015625 25.390625 
L 58.015625 17.1875 
L 47.609375 17.1875 
L 47.609375 0 
L 37.796875 0 
L 37.796875 17.1875 
L 4.890625 17.1875 
L 4.890625 26.703125 
z
" id="DejaVuSans-52"/>
      </defs>
      <g transform="translate(40.17 302.303649)scale(0.1 -0.1)">
       <use xlink:href="#DejaVuSans-52"/>
       <use x="63.623047" xlink:href="#DejaVuSans-48"/>
       <use x="127.246094" xlink:href="#DejaVuSans-48"/>
       <use x="190.869141" xlink:href="#DejaVuSans-48"/>
      </g>
     </g>
    </g>
    <g id="ytick_6">
     <g id="line2d_27">
      <path clip-path="url(#p46b935f695)" d="M 69.12 247.130538 
L 820.8 247.130538 
" style="fill:none;stroke:#cbcbcb;"/>
     </g>
     <g id="line2d_28"/>
     <g id="text_15">
      <!-- 5000 -->
      <g transform="translate(40.17 250.929756)scale(0.1 -0.1)">
       <use xlink:href="#DejaVuSans-53"/>
       <use x="63.623047" xlink:href="#DejaVuSans-48"/>
       <use x="127.246094" xlink:href="#DejaVuSans-48"/>
       <use x="190.869141" xlink:href="#DejaVuSans-48"/>
      </g>
     </g>
    </g>
    <g id="ytick_7">
     <g id="line2d_29">
      <path clip-path="url(#p46b935f695)" d="M 69.12 195.756645 
L 820.8 195.756645 
" style="fill:none;stroke:#cbcbcb;"/>
     </g>
     <g id="line2d_30"/>
     <g id="text_16">
      <!-- 6000 -->
      <defs>
       <path d="M 33.015625 40.375 
Q 26.375 40.375 22.484375 35.828125 
Q 18.609375 31.296875 18.609375 23.390625 
Q 18.609375 15.53125 22.484375 10.953125 
Q 26.375 6.390625 33.015625 6.390625 
Q 39.65625 6.390625 43.53125 10.953125 
Q 47.40625 15.53125 47.40625 23.390625 
Q 47.40625 31.296875 43.53125 35.828125 
Q 39.65625 40.375 33.015625 40.375 
z
M 52.59375 71.296875 
L 52.59375 62.3125 
Q 48.875 64.0625 45.09375 64.984375 
Q 41.3125 65.921875 37.59375 65.921875 
Q 27.828125 65.921875 22.671875 59.328125 
Q 17.53125 52.734375 16.796875 39.40625 
Q 19.671875 43.65625 24.015625 45.921875 
Q 28.375 48.1875 33.59375 48.1875 
Q 44.578125 48.1875 50.953125 41.515625 
Q 57.328125 34.859375 57.328125 23.390625 
Q 57.328125 12.15625 50.6875 5.359375 
Q 44.046875 -1.421875 33.015625 -1.421875 
Q 20.359375 -1.421875 13.671875 8.265625 
Q 6.984375 17.96875 6.984375 36.375 
Q 6.984375 53.65625 15.1875 63.9375 
Q 23.390625 74.21875 37.203125 74.21875 
Q 40.921875 74.21875 44.703125 73.484375 
Q 48.484375 72.75 52.59375 71.296875 
z
" id="DejaVuSans-54"/>
      </defs>
      <g transform="translate(40.17 199.555864)scale(0.1 -0.1)">
       <use xlink:href="#DejaVuSans-54"/>
       <use x="63.623047" xlink:href="#DejaVuSans-48"/>
       <use x="127.246094" xlink:href="#DejaVuSans-48"/>
       <use x="190.869141" xlink:href="#DejaVuSans-48"/>
      </g>
     </g>
    </g>
    <g id="ytick_8">
     <g id="line2d_31">
      <path clip-path="url(#p46b935f695)" d="M 69.12 144.382753 
L 820.8 144.382753 
" style="fill:none;stroke:#cbcbcb;"/>
     </g>
     <g id="line2d_32"/>
     <g id="text_17">
      <!-- 7000 -->
      <defs>
       <path d="M 8.203125 72.90625 
L 55.078125 72.90625 
L 55.078125 68.703125 
L 28.609375 0 
L 18.3125 0 
L 43.21875 64.59375 
L 8.203125 64.59375 
z
" id="DejaVuSans-55"/>
      </defs>
      <g transform="translate(40.17 148.181971)scale(0.1 -0.1)">
       <use xlink:href="#DejaVuSans-55"/>
       <use x="63.623047" xlink:href="#DejaVuSans-48"/>
       <use x="127.246094" xlink:href="#DejaVuSans-48"/>
       <use x="190.869141" xlink:href="#DejaVuSans-48"/>
      </g>
     </g>
    </g>
    <g id="ytick_9">
     <g id="line2d_33">
      <path clip-path="url(#p46b935f695)" d="M 69.12 93.00886 
L 820.8 93.00886 
" style="fill:none;stroke:#cbcbcb;"/>
     </g>
     <g id="line2d_34"/>
     <g id="text_18">
      <!-- 8000 -->
      <g transform="translate(40.17 96.808079)scale(0.1 -0.1)">
       <use xlink:href="#DejaVuSans-56"/>
       <use x="63.623047" xlink:href="#DejaVuSans-48"/>
       <use x="127.246094" xlink:href="#DejaVuSans-48"/>
       <use x="190.869141" xlink:href="#DejaVuSans-48"/>
      </g>
     </g>
    </g>
    <g id="text_19">
     <!-- Number of Comments -->
     <defs>
      <path d="M 9.8125 72.90625 
L 23.09375 72.90625 
L 55.421875 11.921875 
L 55.421875 72.90625 
L 64.984375 72.90625 
L 64.984375 0 
L 51.703125 0 
L 19.390625 60.984375 
L 19.390625 0 
L 9.8125 0 
z
" id="DejaVuSans-78"/>
      <path d="M 52 44.1875 
Q 55.375 50.25 60.0625 53.125 
Q 64.75 56 71.09375 56 
Q 79.640625 56 84.28125 50.015625 
Q 88.921875 44.046875 88.921875 33.015625 
L 88.921875 0 
L 79.890625 0 
L 79.890625 32.71875 
Q 79.890625 40.578125 77.09375 44.375 
Q 74.3125 48.1875 68.609375 48.1875 
Q 61.625 48.1875 57.5625 43.546875 
Q 53.515625 38.921875 53.515625 30.90625 
L 53.515625 0 
L 44.484375 0 
L 44.484375 32.71875 
Q 44.484375 40.625 41.703125 44.40625 
Q 38.921875 48.1875 33.109375 48.1875 
Q 26.21875 48.1875 22.15625 43.53125 
Q 18.109375 38.875 18.109375 30.90625 
L 18.109375 0 
L 9.078125 0 
L 9.078125 54.6875 
L 18.109375 54.6875 
L 18.109375 46.1875 
Q 21.1875 51.21875 25.484375 53.609375 
Q 29.78125 56 35.6875 56 
Q 41.65625 56 45.828125 52.96875 
Q 50 49.953125 52 44.1875 
z
" id="DejaVuSans-109"/>
      <path d="M 48.6875 27.296875 
Q 48.6875 37.203125 44.609375 42.84375 
Q 40.53125 48.484375 33.40625 48.484375 
Q 26.265625 48.484375 22.1875 42.84375 
Q 18.109375 37.203125 18.109375 27.296875 
Q 18.109375 17.390625 22.1875 11.75 
Q 26.265625 6.109375 33.40625 6.109375 
Q 40.53125 6.109375 44.609375 11.75 
Q 48.6875 17.390625 48.6875 27.296875 
z
M 18.109375 46.390625 
Q 20.953125 51.265625 25.265625 53.625 
Q 29.59375 56 35.59375 56 
Q 45.5625 56 51.78125 48.09375 
Q 58.015625 40.1875 58.015625 27.296875 
Q 58.015625 14.40625 51.78125 6.484375 
Q 45.5625 -1.421875 35.59375 -1.421875 
Q 29.59375 -1.421875 25.265625 0.953125 
Q 20.953125 3.328125 18.109375 8.203125 
L 18.109375 0 
L 9.078125 0 
L 9.078125 75.984375 
L 18.109375 75.984375 
z
" id="DejaVuSans-98"/>
      <path d="M 56.203125 29.59375 
L 56.203125 25.203125 
L 14.890625 25.203125 
Q 15.484375 15.921875 20.484375 11.0625 
Q 25.484375 6.203125 34.421875 6.203125 
Q 39.59375 6.203125 44.453125 7.46875 
Q 49.3125 8.734375 54.109375 11.28125 
L 54.109375 2.78125 
Q 49.265625 0.734375 44.1875 -0.34375 
Q 39.109375 -1.421875 33.890625 -1.421875 
Q 20.796875 -1.421875 13.15625 6.1875 
Q 5.515625 13.8125 5.515625 26.8125 
Q 5.515625 40.234375 12.765625 48.109375 
Q 20.015625 56 32.328125 56 
Q 43.359375 56 49.78125 48.890625 
Q 56.203125 41.796875 56.203125 29.59375 
z
M 47.21875 32.234375 
Q 47.125 39.59375 43.09375 43.984375 
Q 39.0625 48.390625 32.421875 48.390625 
Q 24.90625 48.390625 20.390625 44.140625 
Q 15.875 39.890625 15.1875 32.171875 
z
" id="DejaVuSans-101"/>
      <path id="DejaVuSans-32"/>
      <path d="M 30.609375 48.390625 
Q 23.390625 48.390625 19.1875 42.75 
Q 14.984375 37.109375 14.984375 27.296875 
Q 14.984375 17.484375 19.15625 11.84375 
Q 23.34375 6.203125 30.609375 6.203125 
Q 37.796875 6.203125 41.984375 11.859375 
Q 46.1875 17.53125 46.1875 27.296875 
Q 46.1875 37.015625 41.984375 42.703125 
Q 37.796875 48.390625 30.609375 48.390625 
z
M 30.609375 56 
Q 42.328125 56 49.015625 48.375 
Q 55.71875 40.765625 55.71875 27.296875 
Q 55.71875 13.875 49.015625 6.21875 
Q 42.328125 -1.421875 30.609375 -1.421875 
Q 18.84375 -1.421875 12.171875 6.21875 
Q 5.515625 13.875 5.515625 27.296875 
Q 5.515625 40.765625 12.171875 48.375 
Q 18.84375 56 30.609375 56 
z
" id="DejaVuSans-111"/>
      <path d="M 37.109375 75.984375 
L 37.109375 68.5 
L 28.515625 68.5 
Q 23.6875 68.5 21.796875 66.546875 
Q 19.921875 64.59375 19.921875 59.515625 
L 19.921875 54.6875 
L 34.71875 54.6875 
L 34.71875 47.703125 
L 19.921875 47.703125 
L 19.921875 0 
L 10.890625 0 
L 10.890625 47.703125 
L 2.296875 47.703125 
L 2.296875 54.6875 
L 10.890625 54.6875 
L 10.890625 58.5 
Q 10.890625 67.625 15.140625 71.796875 
Q 19.390625 75.984375 28.609375 75.984375 
z
" id="DejaVuSans-102"/>
      <path d="M 64.40625 67.28125 
L 64.40625 56.890625 
Q 59.421875 61.53125 53.78125 63.8125 
Q 48.140625 66.109375 41.796875 66.109375 
Q 29.296875 66.109375 22.65625 58.46875 
Q 16.015625 50.828125 16.015625 36.375 
Q 16.015625 21.96875 22.65625 14.328125 
Q 29.296875 6.6875 41.796875 6.6875 
Q 48.140625 6.6875 53.78125 8.984375 
Q 59.421875 11.28125 64.40625 15.921875 
L 64.40625 5.609375 
Q 59.234375 2.09375 53.4375 0.328125 
Q 47.65625 -1.421875 41.21875 -1.421875 
Q 24.65625 -1.421875 15.125 8.703125 
Q 5.609375 18.84375 5.609375 36.375 
Q 5.609375 53.953125 15.125 64.078125 
Q 24.65625 74.21875 41.21875 74.21875 
Q 47.75 74.21875 53.53125 72.484375 
Q 59.328125 70.75 64.40625 67.28125 
z
" id="DejaVuSans-67"/>
      <path d="M 18.3125 70.21875 
L 18.3125 54.6875 
L 36.8125 54.6875 
L 36.8125 47.703125 
L 18.3125 47.703125 
L 18.3125 18.015625 
Q 18.3125 11.328125 20.140625 9.421875 
Q 21.96875 7.515625 27.59375 7.515625 
L 36.8125 7.515625 
L 36.8125 0 
L 27.59375 0 
Q 17.1875 0 13.234375 3.875 
Q 9.28125 7.765625 9.28125 18.015625 
L 9.28125 47.703125 
L 2.6875 47.703125 
L 2.6875 54.6875 
L 9.28125 54.6875 
L 9.28125 70.21875 
z
" id="DejaVuSans-116"/>
      <path d="M 44.28125 53.078125 
L 44.28125 44.578125 
Q 40.484375 46.53125 36.375 47.5 
Q 32.28125 48.484375 27.875 48.484375 
Q 21.1875 48.484375 17.84375 46.4375 
Q 14.5 44.390625 14.5 40.28125 
Q 14.5 37.15625 16.890625 35.375 
Q 19.28125 33.59375 26.515625 31.984375 
L 29.59375 31.296875 
Q 39.15625 29.25 43.1875 25.515625 
Q 47.21875 21.78125 47.21875 15.09375 
Q 47.21875 7.46875 41.1875 3.015625 
Q 35.15625 -1.421875 24.609375 -1.421875 
Q 20.21875 -1.421875 15.453125 -0.5625 
Q 10.6875 0.296875 5.421875 2 
L 5.421875 11.28125 
Q 10.40625 8.6875 15.234375 7.390625 
Q 20.0625 6.109375 24.8125 6.109375 
Q 31.15625 6.109375 34.5625 8.28125 
Q 37.984375 10.453125 37.984375 14.40625 
Q 37.984375 18.0625 35.515625 20.015625 
Q 33.0625 21.96875 24.703125 23.78125 
L 21.578125 24.515625 
Q 13.234375 26.265625 9.515625 29.90625 
Q 5.8125 33.546875 5.8125 39.890625 
Q 5.8125 47.609375 11.28125 51.796875 
Q 16.75 56 26.8125 56 
Q 31.78125 56 36.171875 55.265625 
Q 40.578125 54.546875 44.28125 53.078125 
z
" id="DejaVuSans-115"/>
     </defs>
     <g transform="translate(33.674375 352.782188)rotate(-90)scale(0.12 -0.12)">
      <use xlink:href="#DejaVuSans-78"/>
      <use x="74.804688" xlink:href="#DejaVuSans-117"/>
      <use x="138.183594" xlink:href="#DejaVuSans-109"/>
      <use x="235.595703" xlink:href="#DejaVuSans-98"/>
      <use x="299.072266" xlink:href="#DejaVuSans-101"/>
      <use x="360.595703" xlink:href="#DejaVuSans-114"/>
      <use x="401.708984" xlink:href="#DejaVuSans-32"/>
      <use x="433.496094" xlink:href="#DejaVuSans-111"/>
      <use x="494.677734" xlink:href="#DejaVuSans-102"/>
      <use x="529.882812" xlink:href="#DejaVuSans-32"/>
      <use x="561.669922" xlink:href="#DejaVuSans-67"/>
      <use x="631.494141" xlink:href="#DejaVuSans-111"/>
      <use x="692.675781" xlink:href="#DejaVuSans-109"/>
      <use x="790.087891" xlink:href="#DejaVuSans-109"/>
      <use x="887.5" xlink:href="#DejaVuSans-101"/>
      <use x="949.023438" xlink:href="#DejaVuSans-110"/>
      <use x="1012.402344" xlink:href="#DejaVuSans-116"/>
      <use x="1051.611328" xlink:href="#DejaVuSans-115"/>
     </g>
    </g>
   </g>
   <g id="PolyCollection_1">
    <path clip-path="url(#p46b935f695)" d="M 69.12 489.718058 
L 69.12 504 
L 76.08 504 
L 83.04 504 
L 90 504 
L 96.96 504 
L 103.92 504 
L 110.88 504 
L 117.84 504 
L 124.8 504 
L 131.76 504 
L 138.72 504 
L 145.68 504 
L 152.64 504 
L 159.6 504 
L 166.56 504 
L 173.52 504 
L 180.48 504 
L 187.44 504 
L 194.4 504 
L 201.36 504 
L 208.32 504 
L 215.28 504 
L 222.24 504 
L 229.2 504 
L 236.16 504 
L 243.12 504 
L 250.08 504 
L 257.04 504 
L 264 504 
L 270.96 504 
L 277.92 504 
L 284.88 504 
L 291.84 504 
L 298.8 504 
L 305.76 504 
L 312.72 504 
L 319.68 504 
L 326.64 504 
L 333.6 504 
L 340.56 504 
L 347.52 504 
L 354.48 504 
L 361.44 504 
L 368.4 504 
L 375.36 504 
L 382.32 504 
L 389.28 504 
L 396.24 504 
L 403.2 504 
L 410.16 504 
L 417.12 504 
L 424.08 504 
L 431.04 504 
L 438 504 
L 444.96 504 
L 451.92 504 
L 458.88 504 
L 465.84 504 
L 472.8 504 
L 479.76 504 
L 486.72 504 
L 493.68 504 
L 500.64 504 
L 507.6 504 
L 514.56 504 
L 521.52 504 
L 528.48 504 
L 535.44 504 
L 542.4 504 
L 549.36 504 
L 556.32 504 
L 563.28 504 
L 570.24 504 
L 577.2 504 
L 584.16 504 
L 591.12 504 
L 598.08 504 
L 605.04 504 
L 612 504 
L 618.96 504 
L 625.92 504 
L 632.88 504 
L 639.84 504 
L 646.8 504 
L 653.76 504 
L 660.72 504 
L 667.68 504 
L 674.64 504 
L 681.6 504 
L 688.56 504 
L 695.52 504 
L 702.48 504 
L 709.44 504 
L 716.4 504 
L 723.36 504 
L 730.32 504 
L 737.28 504 
L 744.24 504 
L 751.2 504 
L 758.16 504 
L 765.12 504 
L 772.08 504 
L 779.04 504 
L 786 504 
L 792.96 504 
L 799.92 504 
L 806.88 504 
L 813.84 504 
L 820.8 504 
L 820.8 489.87218 
L 820.8 489.87218 
L 813.84 484.426547 
L 806.88 482.011974 
L 799.92 473.278412 
L 792.96 482.474339 
L 786 467.267667 
L 779.04 483.912808 
L 772.08 479.802897 
L 765.12 485.967764 
L 758.16 483.244947 
L 751.2 480.881748 
L 744.24 474.30589 
L 737.28 478.826793 
L 730.32 485.65952 
L 723.36 487.508981 
L 716.4 484.221051 
L 709.44 478.980914 
L 702.48 479.443279 
L 695.52 481.446861 
L 688.56 481.549609 
L 681.6 480.419383 
L 674.64 484.632043 
L 667.68 486.481503 
L 660.72 481.29274 
L 653.76 478.92954 
L 646.8 475.744359 
L 639.84 477.285576 
L 632.88 477.491071 
L 625.92 481.652357 
L 618.96 487.611728 
L 612 471.634448 
L 605.04 465.931946 
L 598.08 417.075374 
L 591.12 475.795733 
L 584.16 486.378755 
L 577.2 484.375173 
L 570.24 489.409815 
L 563.28 476.823211 
L 556.32 481.600983 
L 549.36 474.049021 
L 542.4 467.370415 
L 535.44 468.449266 
L 528.48 468.808884 
L 521.52 480.470757 
L 514.56 484.632043 
L 507.6 476.720463 
L 500.64 479.802897 
L 493.68 466.497058 
L 486.72 481.189992 
L 479.76 483.861434 
L 472.8 483.296321 
L 465.84 476.669089 
L 458.88 484.426547 
L 451.92 481.755105 
L 444.96 474.254516 
L 438 484.375173 
L 431.04 486.995242 
L 424.08 485.710894 
L 417.12 483.090826 
L 410.16 446.46124 
L 403.2 464.185233 
L 396.24 475.744359 
L 389.28 473.432534 
L 382.32 484.169677 
L 375.36 482.628461 
L 368.4 479.443279 
L 361.44 475.179246 
L 354.48 476.001229 
L 347.52 467.781406 
L 340.56 467.627284 
L 333.6 476.617715 
L 326.64 463.568747 
L 319.68 436.494705 
L 312.72 397.604669 
L 305.76 357.841276 
L 298.8 403.409918 
L 291.84 393.957122 
L 284.88 431.100447 
L 277.92 474.665507 
L 270.96 489.152945 
L 264 487.149363 
L 257.04 480.316636 
L 250.08 483.604565 
L 243.12 482.731209 
L 236.16 489.307067 
L 229.2 489.204319 
L 222.24 485.813642 
L 215.28 483.450443 
L 208.32 487.457607 
L 201.36 485.710894 
L 194.4 488.639206 
L 187.44 491.824387 
L 180.48 487.508981 
L 173.52 485.762268 
L 166.56 487.303485 
L 159.6 482.011974 
L 152.64 478.467175 
L 145.68 488.074093 
L 138.72 487.76585 
L 131.76 489.87218 
L 124.8 485.351277 
L 117.84 481.806478 
L 110.88 480.573505 
L 103.92 482.936704 
L 96.96 486.276007 
L 90 487.611728 
L 83.04 494.033465 
L 76.08 487.457607 
L 69.12 489.718058 
z
" style="fill:#ff0000;"/>
   </g>
   <g id="PolyCollection_2">
    <path clip-path="url(#p46b935f695)" d="M 69.12 462.181652 
L 69.12 489.718058 
L 76.08 487.457607 
L 83.04 494.033465 
L 90 487.611728 
L 96.96 486.276007 
L 103.92 482.936704 
L 110.88 480.573505 
L 117.84 481.806478 
L 124.8 485.351277 
L 131.76 489.87218 
L 138.72 487.76585 
L 145.68 488.074093 
L 152.64 478.467175 
L 159.6 482.011974 
L 166.56 487.303485 
L 173.52 485.762268 
L 180.48 487.508981 
L 187.44 491.824387 
L 194.4 488.639206 
L 201.36 485.710894 
L 208.32 487.457607 
L 215.28 483.450443 
L 222.24 485.813642 
L 229.2 489.204319 
L 236.16 489.307067 
L 243.12 482.731209 
L 250.08 483.604565 
L 257.04 480.316636 
L 264 487.149363 
L 270.96 489.152945 
L 277.92 474.665507 
L 284.88 431.100447 
L 291.84 393.957122 
L 298.8 403.409918 
L 305.76 357.841276 
L 312.72 397.604669 
L 319.68 436.494705 
L 326.64 463.568747 
L 333.6 476.617715 
L 340.56 467.627284 
L 347.52 467.781406 
L 354.48 476.001229 
L 361.44 475.179246 
L 368.4 479.443279 
L 375.36 482.628461 
L 382.32 484.169677 
L 389.28 473.432534 
L 396.24 475.744359 
L 403.2 464.185233 
L 410.16 446.46124 
L 417.12 483.090826 
L 424.08 485.710894 
L 431.04 486.995242 
L 438 484.375173 
L 444.96 474.254516 
L 451.92 481.755105 
L 458.88 484.426547 
L 465.84 476.669089 
L 472.8 483.296321 
L 479.76 483.861434 
L 486.72 481.189992 
L 493.68 466.497058 
L 500.64 479.802897 
L 507.6 476.720463 
L 514.56 484.632043 
L 521.52 480.470757 
L 528.48 468.808884 
L 535.44 468.449266 
L 542.4 467.370415 
L 549.36 474.049021 
L 556.32 481.600983 
L 563.28 476.823211 
L 570.24 489.409815 
L 577.2 484.375173 
L 584.16 486.378755 
L 591.12 475.795733 
L 598.08 417.075374 
L 605.04 465.931946 
L 612 471.634448 
L 618.96 487.611728 
L 625.92 481.652357 
L 632.88 477.491071 
L 639.84 477.285576 
L 646.8 475.744359 
L 653.76 478.92954 
L 660.72 481.29274 
L 667.68 486.481503 
L 674.64 484.632043 
L 681.6 480.419383 
L 688.56 481.549609 
L 695.52 481.446861 
L 702.48 479.443279 
L 709.44 478.980914 
L 716.4 484.221051 
L 723.36 487.508981 
L 730.32 485.65952 
L 737.28 478.826793 
L 744.24 474.30589 
L 751.2 480.881748 
L 758.16 483.244947 
L 765.12 485.967764 
L 772.08 479.802897 
L 779.04 483.912808 
L 786 467.267667 
L 792.96 482.474339 
L 799.92 473.278412 
L 806.88 482.011974 
L 813.84 484.426547 
L 820.8 489.87218 
L 820.8 465.829198 
L 820.8 465.829198 
L 813.84 454.013203 
L 806.88 451.033517 
L 799.92 433.309524 
L 792.96 444.509032 
L 786 418.667965 
L 779.04 453.44809 
L 772.08 445.228267 
L 765.12 454.37282 
L 758.16 446.769484 
L 751.2 444.149415 
L 744.24 426.630918 
L 737.28 436.494705 
L 730.32 458.225862 
L 723.36 463.62012 
L 716.4 457.712123 
L 709.44 449.4923 
L 702.48 443.481555 
L 695.52 448.362074 
L 688.56 445.228267 
L 681.6 453.293968 
L 674.64 457.660749 
L 667.68 460.589061 
L 660.72 449.697796 
L 653.76 436.854323 
L 646.8 433.771889 
L 639.84 442.402703 
L 632.88 438.703783 
L 625.92 447.488718 
L 618.96 458.07174 
L 612 429.970221 
L 605.04 413.838819 
L 598.08 325.475724 
L 591.12 433.617767 
L 584.16 462.130278 
L 577.2 458.123114 
L 570.24 461.822034 
L 563.28 438.703783 
L 556.32 445.998875 
L 549.36 433.309524 
L 542.4 423.49711 
L 535.44 419.746816 
L 528.48 427.761144 
L 521.52 450.6739 
L 514.56 455.965411 
L 507.6 441.221103 
L 500.64 448.464822 
L 493.68 413.222332 
L 486.72 452.215116 
L 479.76 452.26649 
L 472.8 455.554419 
L 465.84 437.21394 
L 458.88 451.958247 
L 451.92 446.358493 
L 444.96 430.48396 
L 438 454.424194 
L 431.04 459.458835 
L 424.08 460.589061 
L 417.12 448.670318 
L 410.16 383.014483 
L 403.2 409.883029 
L 396.24 435.313106 
L 389.28 428.685874 
L 382.32 458.790975 
L 375.36 452.009621 
L 368.4 443.532929 
L 361.44 439.217522 
L 354.48 435.929592 
L 347.52 421.801772 
L 340.56 419.181703 
L 333.6 440.244999 
L 326.64 419.900938 
L 319.68 365.187742 
L 312.72 298.966795 
L 305.76 228.68731 
L 298.8 308.93333 
L 291.84 305.748149 
L 284.88 370.325132 
L 277.92 438.601035 
L 270.96 465.72645 
L 264 459.510209 
L 257.04 446.974979 
L 250.08 455.29755 
L 243.12 452.163742 
L 236.16 465.469581 
L 229.2 462.181652 
L 222.24 457.660749 
L 215.28 451.650004 
L 208.32 457.609375 
L 201.36 451.958247 
L 194.4 464.596224 
L 187.44 467.781406 
L 180.48 462.438521 
L 173.52 458.277236 
L 166.56 460.640435 
L 159.6 445.279641 
L 152.64 445.022771 
L 145.68 459.715705 
L 138.72 464.339355 
L 131.76 465.058589 
L 124.8 449.903291 
L 117.84 445.844754 
L 110.88 445.176893 
L 103.92 446.71811 
L 96.96 455.451672 
L 90 464.596224 
L 83.04 474.973751 
L 76.08 460.126696 
L 69.12 462.181652 
z
" style="fill:#008000;"/>
   </g>
   <g id="PolyCollection_3">
    <path clip-path="url(#p46b935f695)" d="M 69.12 433.052654 
L 69.12 462.181652 
L 76.08 460.126696 
L 83.04 474.973751 
L 90 464.596224 
L 96.96 455.451672 
L 103.92 446.71811 
L 110.88 445.176893 
L 117.84 445.844754 
L 124.8 449.903291 
L 131.76 465.058589 
L 138.72 464.339355 
L 145.68 459.715705 
L 152.64 445.022771 
L 159.6 445.279641 
L 166.56 460.640435 
L 173.52 458.277236 
L 180.48 462.438521 
L 187.44 467.781406 
L 194.4 464.596224 
L 201.36 451.958247 
L 208.32 457.609375 
L 215.28 451.650004 
L 222.24 457.660749 
L 229.2 462.181652 
L 236.16 465.469581 
L 243.12 452.163742 
L 250.08 455.29755 
L 257.04 446.974979 
L 264 459.510209 
L 270.96 465.72645 
L 277.92 438.601035 
L 284.88 370.325132 
L 291.84 305.748149 
L 298.8 308.93333 
L 305.76 228.68731 
L 312.72 298.966795 
L 319.68 365.187742 
L 326.64 419.900938 
L 333.6 440.244999 
L 340.56 419.181703 
L 347.52 421.801772 
L 354.48 435.929592 
L 361.44 439.217522 
L 368.4 443.532929 
L 375.36 452.009621 
L 382.32 458.790975 
L 389.28 428.685874 
L 396.24 435.313106 
L 403.2 409.883029 
L 410.16 383.014483 
L 417.12 448.670318 
L 424.08 460.589061 
L 431.04 459.458835 
L 438 454.424194 
L 444.96 430.48396 
L 451.92 446.358493 
L 458.88 451.958247 
L 465.84 437.21394 
L 472.8 455.554419 
L 479.76 452.26649 
L 486.72 452.215116 
L 493.68 413.222332 
L 500.64 448.464822 
L 507.6 441.221103 
L 514.56 455.965411 
L 521.52 450.6739 
L 528.48 427.761144 
L 535.44 419.746816 
L 542.4 423.49711 
L 549.36 433.309524 
L 556.32 445.998875 
L 563.28 438.703783 
L 570.24 461.822034 
L 577.2 458.123114 
L 584.16 462.130278 
L 591.12 433.617767 
L 598.08 325.475724 
L 605.04 413.838819 
L 612 429.970221 
L 618.96 458.07174 
L 625.92 447.488718 
L 632.88 438.703783 
L 639.84 442.402703 
L 646.8 433.771889 
L 653.76 436.854323 
L 660.72 449.697796 
L 667.68 460.589061 
L 674.64 457.660749 
L 681.6 453.293968 
L 688.56 445.228267 
L 695.52 448.362074 
L 702.48 443.481555 
L 709.44 449.4923 
L 716.4 457.712123 
L 723.36 463.62012 
L 730.32 458.225862 
L 737.28 436.494705 
L 744.24 426.630918 
L 751.2 444.149415 
L 758.16 446.769484 
L 765.12 454.37282 
L 772.08 445.228267 
L 779.04 453.44809 
L 786 418.667965 
L 792.96 444.509032 
L 799.92 433.309524 
L 806.88 451.033517 
L 813.84 454.013203 
L 820.8 465.829198 
L 820.8 441.734842 
L 820.8 441.734842 
L 813.84 420.825668 
L 806.88 418.770712 
L 799.92 389.847211 
L 792.96 407.622578 
L 786 362.619048 
L 779.04 418.2056 
L 772.08 405.927239 
L 765.12 420.260555 
L 758.16 410.139898 
L 751.2 403.050301 
L 744.24 372.431461 
L 737.28 385.737299 
L 730.32 429.507856 
L 723.36 436.905696 
L 716.4 429.405108 
L 709.44 412.862715 
L 702.48 407.622578 
L 695.52 413.941566 
L 688.56 410.55089 
L 681.6 416.613009 
L 674.64 427.504274 
L 667.68 433.720515 
L 660.72 417.743234 
L 653.76 388.768359 
L 646.8 388.768359 
L 639.84 401.354963 
L 632.88 398.734894 
L 625.92 410.088525 
L 618.96 429.148239 
L 612 383.990587 
L 605.04 358.920128 
L 598.08 210.089961 
L 591.12 391.645297 
L 584.16 430.997699 
L 577.2 426.682292 
L 570.24 435.569975 
L 563.28 397.09093 
L 556.32 407.622578 
L 549.36 392.570027 
L 542.4 375.308399 
L 535.44 361.540196 
L 528.48 374.486417 
L 521.52 418.924834 
L 514.56 425.449318 
L 507.6 399.60825 
L 500.64 414.660801 
L 493.68 359.125623 
L 486.72 421.031164 
L 479.76 420.260555 
L 472.8 423.702606 
L 465.84 388.51149 
L 458.88 418.308347 
L 451.92 409.883029 
L 444.96 385.120813 
L 438 420.311929 
L 431.04 431.100447 
L 424.08 427.401526 
L 417.12 417.075374 
L 410.16 305.285784 
L 403.2 349.570079 
L 396.24 390.463698 
L 389.28 387.278516 
L 382.32 430.432586 
L 375.36 418.2056 
L 368.4 407.673952 
L 361.44 398.786268 
L 354.48 390.309576 
L 347.52 373.561687 
L 340.56 368.527045 
L 333.6 400.892598 
L 326.64 366.317968 
L 319.68 280.677689 
L 312.72 174.385106 
L 305.76 69.12 
L 298.8 196.013514 
L 291.84 186.303849 
L 284.88 284.016992 
L 277.92 399.094512 
L 270.96 438.80653 
L 264 427.196031 
L 257.04 407.725325 
L 250.08 420.825668 
L 243.12 420.877042 
L 236.16 437.830426 
L 229.2 433.977385 
L 222.24 428.994117 
L 215.28 419.592695 
L 208.32 427.298778 
L 201.36 420.928416 
L 194.4 437.21394 
L 187.44 444.098041 
L 180.48 436.135088 
L 173.52 428.788621 
L 166.56 431.049073 
L 159.6 406.697848 
L 152.64 410.705011 
L 145.68 427.966639 
L 138.72 437.676305 
L 131.76 443.224685 
L 124.8 414.866297 
L 117.84 411.321498 
L 110.88 408.958299 
L 103.92 409.163794 
L 96.96 425.963057 
L 90 442.351329 
L 83.04 455.348924 
L 76.08 434.028758 
L 69.12 433.052654 
z
" style="fill:#bfbf00;"/>
   </g>
   <g id="line2d_35">
    <path clip-path="url(#p46b935f695)" d="M 264 504 
L 264 69.12 
" style="fill:none;stroke:#008fd5;stroke-width:2;"/>
   </g>
   <g id="line2d_36">
    <path clip-path="url(#p46b935f695)" d="M 591.12 504 
L 591.12 69.12 
" style="fill:none;stroke:#008fd5;"/>
   </g>
   <g id="patch_3">
    <path d="M 69.12 504 
L 69.12 69.12 
" style="fill:none;stroke:#f0f0f0;stroke-linecap:square;stroke-linejoin:miter;stroke-width:3;"/>
   </g>
   <g id="patch_4">
    <path d="M 820.8 504 
L 820.8 69.12 
" style="fill:none;stroke:#f0f0f0;stroke-linecap:square;stroke-linejoin:miter;stroke-width:3;"/>
   </g>
   <g id="patch_5">
    <path d="M 69.12 504 
L 820.8 504 
" style="fill:none;stroke:#f0f0f0;stroke-linecap:square;stroke-linejoin:miter;stroke-width:3;"/>
   </g>
   <g id="patch_6">
    <path d="M 69.12 69.12 
L 820.8 69.12 
" style="fill:none;stroke:#f0f0f0;stroke-linecap:square;stroke-linejoin:miter;stroke-width:3;"/>
   </g>
   <g id="text_20">
    <!-- Arrest Date -->
    <defs>
     <path d="M 19.671875 64.796875 
L 19.671875 8.109375 
L 31.59375 8.109375 
Q 46.6875 8.109375 53.6875 14.9375 
Q 60.6875 21.78125 60.6875 36.53125 
Q 60.6875 51.171875 53.6875 57.984375 
Q 46.6875 64.796875 31.59375 64.796875 
z
M 9.8125 72.90625 
L 30.078125 72.90625 
Q 51.265625 72.90625 61.171875 64.09375 
Q 71.09375 55.28125 71.09375 36.53125 
Q 71.09375 17.671875 61.125 8.828125 
Q 51.171875 0 30.078125 0 
L 9.8125 0 
z
" id="DejaVuSans-68"/>
    </defs>
    <g transform="translate(270.96 112.608)scale(0.1 -0.1)">
     <use xlink:href="#DejaVuSans-65"/>
     <use x="68.408203" xlink:href="#DejaVuSans-114"/>
     <use x="107.771484" xlink:href="#DejaVuSans-114"/>
     <use x="146.634766" xlink:href="#DejaVuSans-101"/>
     <use x="208.158203" xlink:href="#DejaVuSans-115"/>
     <use x="260.257812" xlink:href="#DejaVuSans-116"/>
     <use x="299.466797" xlink:href="#DejaVuSans-32"/>
     <use x="331.253906" xlink:href="#DejaVuSans-68"/>
     <use x="408.255859" xlink:href="#DejaVuSans-97"/>
     <use x="469.535156" xlink:href="#DejaVuSans-116"/>
     <use x="508.744141" xlink:href="#DejaVuSans-101"/>
    </g>
   </g>
   <g id="text_21">
    <!-- Training Date -->
    <defs>
     <path d="M -0.296875 72.90625 
L 61.375 72.90625 
L 61.375 64.59375 
L 35.5 64.59375 
L 35.5 0 
L 25.59375 0 
L 25.59375 64.59375 
L -0.296875 64.59375 
z
" id="DejaVuSans-84"/>
     <path d="M 9.421875 54.6875 
L 18.40625 54.6875 
L 18.40625 0 
L 9.421875 0 
z
M 9.421875 75.984375 
L 18.40625 75.984375 
L 18.40625 64.59375 
L 9.421875 64.59375 
z
" id="DejaVuSans-105"/>
     <path d="M 45.40625 27.984375 
Q 45.40625 37.75 41.375 43.109375 
Q 37.359375 48.484375 30.078125 48.484375 
Q 22.859375 48.484375 18.828125 43.109375 
Q 14.796875 37.75 14.796875 27.984375 
Q 14.796875 18.265625 18.828125 12.890625 
Q 22.859375 7.515625 30.078125 7.515625 
Q 37.359375 7.515625 41.375 12.890625 
Q 45.40625 18.265625 45.40625 27.984375 
z
M 54.390625 6.78125 
Q 54.390625 -7.171875 48.1875 -13.984375 
Q 42 -20.796875 29.203125 -20.796875 
Q 24.46875 -20.796875 20.265625 -20.09375 
Q 16.0625 -19.390625 12.109375 -17.921875 
L 12.109375 -9.1875 
Q 16.0625 -11.328125 19.921875 -12.34375 
Q 23.78125 -13.375 27.78125 -13.375 
Q 36.625 -13.375 41.015625 -8.765625 
Q 45.40625 -4.15625 45.40625 5.171875 
L 45.40625 9.625 
Q 42.625 4.78125 38.28125 2.390625 
Q 33.9375 0 27.875 0 
Q 17.828125 0 11.671875 7.65625 
Q 5.515625 15.328125 5.515625 27.984375 
Q 5.515625 40.671875 11.671875 48.328125 
Q 17.828125 56 27.875 56 
Q 33.9375 56 38.28125 53.609375 
Q 42.625 51.21875 45.40625 46.390625 
L 45.40625 54.6875 
L 54.390625 54.6875 
z
" id="DejaVuSans-103"/>
    </defs>
    <g transform="translate(598.08 156.096)scale(0.1 -0.1)">
     <use xlink:href="#DejaVuSans-84"/>
     <use x="46.333984" xlink:href="#DejaVuSans-114"/>
     <use x="87.447266" xlink:href="#DejaVuSans-97"/>
     <use x="148.726562" xlink:href="#DejaVuSans-105"/>
     <use x="176.509766" xlink:href="#DejaVuSans-110"/>
     <use x="239.888672" xlink:href="#DejaVuSans-105"/>
     <use x="267.671875" xlink:href="#DejaVuSans-110"/>
     <use x="331.050781" xlink:href="#DejaVuSans-103"/>
     <use x="394.527344" xlink:href="#DejaVuSans-32"/>
     <use x="426.314453" xlink:href="#DejaVuSans-68"/>
     <use x="503.316406" xlink:href="#DejaVuSans-97"/>
     <use x="564.595703" xlink:href="#DejaVuSans-116"/>
     <use x="603.804688" xlink:href="#DejaVuSans-101"/>
    </g>
   </g>
   <g id="text_22">
    <!-- Sentiment Counts by Date  -->
    <defs>
     <path d="M 53.515625 70.515625 
L 53.515625 60.890625 
Q 47.90625 63.578125 42.921875 64.890625 
Q 37.9375 66.21875 33.296875 66.21875 
Q 25.25 66.21875 20.875 63.09375 
Q 16.5 59.96875 16.5 54.203125 
Q 16.5 49.359375 19.40625 46.890625 
Q 22.3125 44.4375 30.421875 42.921875 
L 36.375 41.703125 
Q 47.40625 39.59375 52.65625 34.296875 
Q 57.90625 29 57.90625 20.125 
Q 57.90625 9.515625 50.796875 4.046875 
Q 43.703125 -1.421875 29.984375 -1.421875 
Q 24.8125 -1.421875 18.96875 -0.25 
Q 13.140625 0.921875 6.890625 3.21875 
L 6.890625 13.375 
Q 12.890625 10.015625 18.65625 8.296875 
Q 24.421875 6.59375 29.984375 6.59375 
Q 38.421875 6.59375 43.015625 9.90625 
Q 47.609375 13.234375 47.609375 19.390625 
Q 47.609375 24.75 44.3125 27.78125 
Q 41.015625 30.8125 33.5 32.328125 
L 27.484375 33.5 
Q 16.453125 35.6875 11.515625 40.375 
Q 6.59375 45.0625 6.59375 53.421875 
Q 6.59375 63.09375 13.40625 68.65625 
Q 20.21875 74.21875 32.171875 74.21875 
Q 37.3125 74.21875 42.625 73.28125 
Q 47.953125 72.359375 53.515625 70.515625 
z
" id="DejaVuSans-83"/>
    </defs>
    <g transform="translate(347.416875 46.99515)scale(0.144 -0.144)">
     <use xlink:href="#DejaVuSans-83"/>
     <use x="63.476562" xlink:href="#DejaVuSans-101"/>
     <use x="125" xlink:href="#DejaVuSans-110"/>
     <use x="188.378906" xlink:href="#DejaVuSans-116"/>
     <use x="227.587891" xlink:href="#DejaVuSans-105"/>
     <use x="255.371094" xlink:href="#DejaVuSans-109"/>
     <use x="352.783203" xlink:href="#DejaVuSans-101"/>
     <use x="414.306641" xlink:href="#DejaVuSans-110"/>
     <use x="477.685547" xlink:href="#DejaVuSans-116"/>
     <use x="516.894531" xlink:href="#DejaVuSans-32"/>
     <use x="548.681641" xlink:href="#DejaVuSans-67"/>
     <use x="618.505859" xlink:href="#DejaVuSans-111"/>
     <use x="679.6875" xlink:href="#DejaVuSans-117"/>
     <use x="743.066406" xlink:href="#DejaVuSans-110"/>
     <use x="806.445312" xlink:href="#DejaVuSans-116"/>
     <use x="845.654297" xlink:href="#DejaVuSans-115"/>
     <use x="897.753906" xlink:href="#DejaVuSans-32"/>
     <use x="929.541016" xlink:href="#DejaVuSans-98"/>
     <use x="993.017578" xlink:href="#DejaVuSans-121"/>
     <use x="1052.197266" xlink:href="#DejaVuSans-32"/>
     <use x="1083.984375" xlink:href="#DejaVuSans-68"/>
     <use x="1160.986328" xlink:href="#DejaVuSans-97"/>
     <use x="1222.265625" xlink:href="#DejaVuSans-116"/>
     <use x="1261.474609" xlink:href="#DejaVuSans-101"/>
     <use x="1322.998047" xlink:href="#DejaVuSans-32"/>
    </g>
    <!-- (All discussions) -->
    <defs>
     <path d="M 31 75.875 
Q 24.46875 64.65625 21.28125 53.65625 
Q 18.109375 42.671875 18.109375 31.390625 
Q 18.109375 20.125 21.3125 9.0625 
Q 24.515625 -2 31 -13.1875 
L 23.1875 -13.1875 
Q 15.875 -1.703125 12.234375 9.375 
Q 8.59375 20.453125 8.59375 31.390625 
Q 8.59375 42.28125 12.203125 53.3125 
Q 15.828125 64.359375 23.1875 75.875 
z
" id="DejaVuSans-40"/>
     <path d="M 45.40625 46.390625 
L 45.40625 75.984375 
L 54.390625 75.984375 
L 54.390625 0 
L 45.40625 0 
L 45.40625 8.203125 
Q 42.578125 3.328125 38.25 0.953125 
Q 33.9375 -1.421875 27.875 -1.421875 
Q 17.96875 -1.421875 11.734375 6.484375 
Q 5.515625 14.40625 5.515625 27.296875 
Q 5.515625 40.1875 11.734375 48.09375 
Q 17.96875 56 27.875 56 
Q 33.9375 56 38.25 53.625 
Q 42.578125 51.265625 45.40625 46.390625 
z
M 14.796875 27.296875 
Q 14.796875 17.390625 18.875 11.75 
Q 22.953125 6.109375 30.078125 6.109375 
Q 37.203125 6.109375 41.296875 11.75 
Q 45.40625 17.390625 45.40625 27.296875 
Q 45.40625 37.203125 41.296875 42.84375 
Q 37.203125 48.484375 30.078125 48.484375 
Q 22.953125 48.484375 18.875 42.84375 
Q 14.796875 37.203125 14.796875 27.296875 
z
" id="DejaVuSans-100"/>
     <path d="M 48.78125 52.59375 
L 48.78125 44.1875 
Q 44.96875 46.296875 41.140625 47.34375 
Q 37.3125 48.390625 33.40625 48.390625 
Q 24.65625 48.390625 19.8125 42.84375 
Q 14.984375 37.3125 14.984375 27.296875 
Q 14.984375 17.28125 19.8125 11.734375 
Q 24.65625 6.203125 33.40625 6.203125 
Q 37.3125 6.203125 41.140625 7.25 
Q 44.96875 8.296875 48.78125 10.40625 
L 48.78125 2.09375 
Q 45.015625 0.34375 40.984375 -0.53125 
Q 36.96875 -1.421875 32.421875 -1.421875 
Q 20.0625 -1.421875 12.78125 6.34375 
Q 5.515625 14.109375 5.515625 27.296875 
Q 5.515625 40.671875 12.859375 48.328125 
Q 20.21875 56 33.015625 56 
Q 37.15625 56 41.109375 55.140625 
Q 45.0625 54.296875 48.78125 52.59375 
z
" id="DejaVuSans-99"/>
     <path d="M 8.015625 75.875 
L 15.828125 75.875 
Q 23.140625 64.359375 26.78125 53.3125 
Q 30.421875 42.28125 30.421875 31.390625 
Q 30.421875 20.453125 26.78125 9.375 
Q 23.140625 -1.703125 15.828125 -13.1875 
L 8.015625 -13.1875 
Q 14.5 -2 17.703125 9.0625 
Q 20.90625 20.125 20.90625 31.390625 
Q 20.90625 42.671875 17.703125 53.65625 
Q 14.5 64.65625 8.015625 75.875 
z
" id="DejaVuSans-41"/>
    </defs>
    <g transform="translate(387.063 63.12)scale(0.144 -0.144)">
     <use xlink:href="#DejaVuSans-40"/>
     <use x="39.013672" xlink:href="#DejaVuSans-65"/>
     <use x="107.421875" xlink:href="#DejaVuSans-108"/>
     <use x="135.205078" xlink:href="#DejaVuSans-108"/>
     <use x="162.988281" xlink:href="#DejaVuSans-32"/>
     <use x="194.775391" xlink:href="#DejaVuSans-100"/>
     <use x="258.251953" xlink:href="#DejaVuSans-105"/>
     <use x="286.035156" xlink:href="#DejaVuSans-115"/>
     <use x="338.134766" xlink:href="#DejaVuSans-99"/>
     <use x="393.115234" xlink:href="#DejaVuSans-117"/>
     <use x="456.494141" xlink:href="#DejaVuSans-115"/>
     <use x="508.59375" xlink:href="#DejaVuSans-115"/>
     <use x="560.693359" xlink:href="#DejaVuSans-105"/>
     <use x="588.476562" xlink:href="#DejaVuSans-111"/>
     <use x="649.658203" xlink:href="#DejaVuSans-110"/>
     <use x="713.037109" xlink:href="#DejaVuSans-115"/>
     <use x="765.136719" xlink:href="#DejaVuSans-41"/>
    </g>
   </g>
   <g id="legend_1">
    <g id="patch_7">
     <path d="M 76.12 121.154375 
L 153.00125 121.154375 
Q 155.00125 121.154375 155.00125 119.154375 
L 155.00125 76.12 
Q 155.00125 74.12 153.00125 74.12 
L 76.12 74.12 
Q 74.12 74.12 74.12 76.12 
L 74.12 119.154375 
Q 74.12 121.154375 76.12 121.154375 
z
" style="fill:#f0f0f0;opacity:0.8;stroke:#cccccc;stroke-linejoin:miter;stroke-width:0.5;"/>
    </g>
    <g id="patch_8">
     <path d="M 78.12 85.718437 
L 98.12 85.718437 
L 98.12 78.718437 
L 78.12 78.718437 
z
" style="fill:#ff0000;"/>
    </g>
    <g id="text_23">
     <!-- Negative -->
     <defs>
      <path d="M 2.984375 54.6875 
L 12.5 54.6875 
L 29.59375 8.796875 
L 46.6875 54.6875 
L 56.203125 54.6875 
L 35.6875 0 
L 23.484375 0 
z
" id="DejaVuSans-118"/>
     </defs>
     <g transform="translate(106.12 85.718437)scale(0.1 -0.1)">
      <use xlink:href="#DejaVuSans-78"/>
      <use x="74.804688" xlink:href="#DejaVuSans-101"/>
      <use x="136.328125" xlink:href="#DejaVuSans-103"/>
      <use x="199.804688" xlink:href="#DejaVuSans-97"/>
      <use x="261.083984" xlink:href="#DejaVuSans-116"/>
      <use x="300.292969" xlink:href="#DejaVuSans-105"/>
      <use x="328.076172" xlink:href="#DejaVuSans-118"/>
      <use x="387.255859" xlink:href="#DejaVuSans-101"/>
     </g>
    </g>
    <g id="patch_9">
     <path d="M 78.12 100.396563 
L 98.12 100.396563 
L 98.12 93.396563 
L 78.12 93.396563 
z
" style="fill:#008000;"/>
    </g>
    <g id="text_24">
     <!-- Positive -->
     <defs>
      <path d="M 19.671875 64.796875 
L 19.671875 37.40625 
L 32.078125 37.40625 
Q 38.96875 37.40625 42.71875 40.96875 
Q 46.484375 44.53125 46.484375 51.125 
Q 46.484375 57.671875 42.71875 61.234375 
Q 38.96875 64.796875 32.078125 64.796875 
z
M 9.8125 72.90625 
L 32.078125 72.90625 
Q 44.34375 72.90625 50.609375 67.359375 
Q 56.890625 61.8125 56.890625 51.125 
Q 56.890625 40.328125 50.609375 34.8125 
Q 44.34375 29.296875 32.078125 29.296875 
L 19.671875 29.296875 
L 19.671875 0 
L 9.8125 0 
z
" id="DejaVuSans-80"/>
     </defs>
     <g transform="translate(106.12 100.396563)scale(0.1 -0.1)">
      <use xlink:href="#DejaVuSans-80"/>
      <use x="56.677734" xlink:href="#DejaVuSans-111"/>
      <use x="117.859375" xlink:href="#DejaVuSans-115"/>
      <use x="169.958984" xlink:href="#DejaVuSans-105"/>
      <use x="197.742188" xlink:href="#DejaVuSans-116"/>
      <use x="236.951172" xlink:href="#DejaVuSans-105"/>
      <use x="264.734375" xlink:href="#DejaVuSans-118"/>
      <use x="323.914062" xlink:href="#DejaVuSans-101"/>
     </g>
    </g>
    <g id="patch_10">
     <path d="M 78.12 115.074687 
L 98.12 115.074687 
L 98.12 108.074687 
L 78.12 108.074687 
z
" style="fill:#bfbf00;"/>
    </g>
    <g id="text_25">
     <!-- Neutral -->
     <g transform="translate(106.12 115.074687)scale(0.1 -0.1)">
      <use xlink:href="#DejaVuSans-78"/>
      <use x="74.804688" xlink:href="#DejaVuSans-101"/>
      <use x="136.328125" xlink:href="#DejaVuSans-117"/>
      <use x="199.707031" xlink:href="#DejaVuSans-116"/>
      <use x="238.916016" xlink:href="#DejaVuSans-114"/>
      <use x="280.029297" xlink:href="#DejaVuSans-97"/>
      <use x="341.308594" xlink:href="#DejaVuSans-108"/>
     </g>
    </g>
   </g>
  </g>
 </g>
 <defs>
  <clipPath id="p46b935f695">
   <rect height="434.88" width="751.68" x="69.12" y="69.12"/>
  </clipPath>
 </defs>
</svg>
